<?xml version="1.0" encoding="UTF-8"?>
<svg id="Camada_2" data-name="Camada 2" xmlns="http://www.w3.org/2000/svg" viewBox="0 0 2780.22 704.55">
  <defs>
    <style>
      .cls-1 {
        fill: #fff;
        stroke-width: 0px;
      }
    </style>
  </defs>
  <g id="Camada_1-2" data-name="Camada 1">
    <g>
      <path class="cls-1" d="M2773.41,90.29c-3.3-5.65,2.08-7.12,2.41-10.8-1.87-.43-3.57-.82-5.75-1.32,2.68-1.5,6.24-1.41,5.24-5.86-10.7,1.68-16.95-16.15-28.36-9.55-4.98-.98-9.39-1.84-14.66-2.88-3.89,1.73-8.64,3.85-12.55,5.59-2.76,6.77-8.49,12.97-7.72,20.62-2.2,1.16-4.25,2.25-6.21,3.28-3.29-2.96-7.09-1.06-9.11-1.58-15.43,4.94-27.91,15.46-43.35,20.38-8.01,2.55-15.71,3.23-23.54,6.42-6.25,2.54-10.08,6.97-17.89,6.36-1.4,2.07-12.22,4.46-14.65,5.32-.21.57-.54,1.51-.86,2.4l-4.86-.16c-2.2,1.33-3.95,2.38-6.72,4.05v-4.3c-6.81,1.23-12.19,6.19-19.6,6.12-1.11-.01-2.16,1.99-3.23,3.06,1.22.26,2.43.51,4,.84-9.65,11.78-47.2,8.16-50.48,22.69-7.38-2.06-12.34,3.26-18.65,4.76v6.29s6.77.21,6.77.21c.03.27.05.54.08.81-2.17.57-4.34,1.15-6.43,1.7-4.1-1.56-1.31-5.45-2.88-7.74-3.83.56-7.41,1.08-12.13,1.77-2.16,1.47-5.3,3.61-8.75,5.95l-6.38-.2c-9.36,8.48-32.33,16.68-45.26,12.85-1.99-1.45-4.71-3.42-7.85-5.69,1.37-5.56,2.68-10.88,4.05-16.45-.57-.7-1.39-1.72-1.9-2.36-2.9,1.3-5.12,2.28-7.31,3.26-4.17-6.75-3.7-13.35-1.06-19.76-1.7-.61-2.74-.99-4.01-1.45,4.56-14.56,7.51-22.35-.24-36.84,1.41-2.67,2.74-5.17,4.05-7.65-1.68-3.1-3.33-6.14-5.18-9.55-4.37-1.42-8.85-2.88-13.35-4.35-5.05,2.78-10.6,3.43-16.03,2.75-23.81,12.56-15.68,26.86-17.7,49.02-.86.78-1.71,1.54-2.56,2.3-2.7-.09-5.41-.18-8.02-.19-.32.52-.74.97-1.16,1.41l-.57-.55,1.47-1.12c.12.11.24.23.26.26,1.83-3.96,7.38-5.85,6.81-12.16-5.89,2.88-7.83,8.53-13,11.4.99,1.34,1.64,2.22,2.3,3.11-2.32,1.54-2.1,3.29.06,5.11-13.55,12.17-7.91,24.41-13.23,39.91-3.74,3.4-7.51,6.82-11.29,10.25-.76-.72-1.61-1.54-2.48-2.37,0-11.11-3.88-36.44,9.05-43.2,0-4.88-2.41-16.62,1.23-20.55-.6-3.69-1.11-6.83-1.47-9.04,5.79-9,9.46-17.93,14.72-26.96.58-4.63-1.3-10.45,1.73-16.62-2.04.67-3.43,1.12-4.55,1.49-8.21-6.15-17.08-6.12-26.99-4.15-8.56-4.81-17.99-9.5-29.18-9.17-2.72,1.74-5.53,3.54-7.36,4.71-2.77,8.5-5.26,12.86-10.09,20.13-3.86,5.81-9.83,13.08-8.17,20.36,2.32-2.93,4.11-5.2,6.08-7.69,2.94,1.71,5.38,3.13,7.6,4.43v6.25c-2.2,1.1-4.32,2.15-6.39,3.18-.59-.57-1.02-.98-1.67-1.6-7.76,7.68-15.52,15.37-22.85,22.62-2.3.3-3.88.52-6.17.82,1.21,1.88,1.93,3.02,2.66,4.15-1.92,6.27-7.14,10.56-11.06,16.3v7.24c-4.19,2.01-8.32,3.98-12.23,5.85,1.14,1.37,2.38,2.86,4.04,4.86-4.36.48-8.16,2.05-11.41,4.7-.26-1.8-.36-2.57-.47-3.34,1.26-.53,2.41-1.02,3.68-1.56-5.87-3.01-12.09-2.92-17.96-3.02-.38-2.19-.64-3.69-.84-4.89-4.62.68-8.54,1.26-12.4,1.83v3.52c.88.84,1.75,1.66,2.56,2.43,1.21-.59,2.41-1.18,4.16-2.05.3,1.54.49,2.51.67,3.4-1.47.45-2.53.78-3.12.96-3.19,4.6,4.64,5.93,2.68,10.91-1.75.99-2.68,4.53-6.96,3.81-6.01,5.24-14.74,25.58-25.76,23.68-1.15.72-2.33.78-3.5.84-.05-.37-.11-.73-.16-1.1,1.11-.17,2.22-.34,3.34-.51-2.51-4.5-15.35,2.47-17.6,3.29-.35-1.83-.64-3.39-.96-5.05-1.72-.3-3.41-.6-5.37-.94v-7.56c-3.44-1.5-5.46-.12-7.24,2.07v4.74c-4.26,4.91-7.39,6.99-6.72,13.28,2.8-1.21,4.81-2.08,6.55-2.83.3-1.03.53-1.78.82-2.76,1.82.27,3.43.51,6.64.99-10.97,7.49-12.08,19.23-25.13,22.72-1.25,2.45-2.2,4.33-3.07,6.05-9.11,3.85-20.21,13.91-26.01,21.58-5.06,1.08-6.42-2.38-8.8-4.31,1.16-2.99,2.27-5.84,3.37-8.69q-6.25-2.49-9.63-1.33c-5.65-.77-9.71-1.33-13.77-1.88-3.32-12.23,14.39-33.4,22.54-42.16,12.81-13.76,39.23-30.78,40.35-50.89-2.59-.21-4.66-.38-5.76-.47-16.13-12.25-20.57-13.36-39.88-8.13-.78-.57-1.7-1.24-2.44-1.78-6.47,2.06-6.11,8.7-10.47,11.72-.94-.68-1.86-1.35-3.02-2.18-10.93,10.32-21.62,20.41-31.82,30.04-9.99,1.11-21.72,6.53-30.62,10.84-5.36,2.59-11.96,10.9-16.74,12.17-1.41-1.19-2.97-2.49-4.89-4.09-7.63,3.99-13.54,7.88-19.86,13.45-1.54,3.78-2.44,6-3.31,8.15-11.73,4.3-9.58,10.18-17.69,17.06-8.23-14.27-22.5-22.64-35.35-32.2-1.36,1.04-2.02,1.54-2.65,2.02-2.71-1.72-5.31-3.37-7.39-4.69-9.23,3.29-27.26-5.32-36.94-7v-6.44c5.17-.72,8.53-3.18,11.56-6.72-2.46-3.94-2.73-8.07-2.4-12.26-1,.5-2,1-3.61,1.81-.09-1.83-.17-3.39-.23-4.64,2.09-.82,3.61-1.41,4.84-1.89,1.2.62,2.23,1.16,3.33,1.73,2.12-2.07,4-3.91,5.84-5.71l5.12.15c-.14-1.16-.24-1.94-.35-2.86-2.04-.11-4.03-.49-5.97-1.14,6.34-3.53,11.69-8.55,19.45-3.14-3.11,1.75-6.23,3.5-9.41,5.29.09,1.32.18,2.66.32,4.55,1.98-1.63,3.32-2.74,4.63-3.82,9.28,1.14,35.79-6.51,43.48-.76,2.26-1.04,4.08-1.88,6.32-2.91l17.47.52c8.08-6.54,16.4-11.32,21.39-20.09,5.4-9.49,5.42-20.63,8.83-30.72-4.41-4.97-8.47-9.55-12.3-13.87-6.75-.23-13.48-.37-20.24-.43,2.45,4.84,4.55,8.98,6.41,12.66-1.43,3.9-15.52,22.28-22.95,16.57.56-.57,1.11-1.15,1.61-1.66-.6-.7-1.1-1.29-2.27-2.64l8.07.26c-.24-15.94-20.69-11.91-30.58-9.55,1.62,2.58,2.77,4.43,4.21,6.72-5.43.71-10.74,1.41-16.48,2.16-1.96-2.27-3.73-4.32-5.28-6.11-5.92.82-10.92-4.35-16.99-.85,2.08,2.33,4.1,4.6,5.75,6.45-.78,1.67-1.34,2.87-1.7,3.65-8.85,2.13-11.18,3.36-16.53,10,1.31,1.22,2.44,2.27,3.22,2.99v4.82c-2.91,1.09-5.72,2.14-9.96,3.73,1.36-3.29,2.11-5.1,3.12-7.53-7.82,2.29-15.18,3.48-18.43,7.69-1.5,4.73-2.39,7.54-3.21,10.11-1.62.56-2.82.97-4.07,1.41,1.1,2.13,1.85,3.58,2.7,5.24-4.56,1.44-8.67,2.74-12.55,3.97-.99-.8-1.65-1.34-2.15-1.74-1.83.94-3.5,1.79-5.27,2.7,1.53,2.59,2.77,4.69,4.27,7.25-6.34,1.8-13.21,23.02-15.37,28.06.79,1.15,1.57,2.3,2.35,3.45-24.13,12.47-40.98,31.95-63.64,47.16-18.27,12.26-39.63,26.23-52.02,43.27.86,1.11.97,2.23,1.08,3.34-.42.04-.84.08-1.26.12-.25-1.14-.5-2.28-.74-3.42.56-.01,1.12-.03.92-.03-1.73-.01-2.7-.04-3.76-.06-.61,1.15-1.24,2.33-1.85,3.49l-4.09-.09c-10.96,11.89-32.89,20.86-40.67,33.95l-6.1-.12c-5.32,7.45-16.22,6.63-23.86,12.15-5.75-.76-11.98-1.57-18.46-2.73-.9,2.27-1.75,4.6-6.3,3.05,2.48-1.38,4.27-2.39,6.3-3.05-.81-.96-1.87-2.27-3.57-4.36-2.71,3.7-7.72,3.94-9.2,7.87l-3.84-.07c-1.52-2.07-1.39-5.35-5.39-5.29-.93.53-1.81,1.03-2.64,1.5-.89-1.74-1.61-3.14-2.01-3.91,2.8-3.85-1.64-6.59-1.12-10.14-5.54-.37-6.46-5.99-11.08-7.68.38-4.73-4.75-7.07-5.87-11.2.48-.57,1.21-1.43,2-2.35-.95-1.19-1.67-2.1-2.39-3-.01-12.45,25.53-25.43,37.13-28.81,15.38,2.02,30.3-17.39,45.44-21.52,1.45-7.16,27.21-33.29,34.69-34.82,2.13,1.8,4,3.37,6.79,5.72v2.49c2.37,1.04,4.27,1.87,5.56,2.44,8.66-2.91,9.33-9.71,13.29-16.34,21.71-4.14,12.5-25.73,18.74-40.17-.54-3.24-.83-5.01-1.14-6.88,2.32-.16,3.84-.27,5.21-.37,2.59-2.65,5.05-5.17,8.57-8.78-.55-2.19-1.47-5.9-2.41-9.65-3.23-1.1-6.34-2.16-9.74-3.31-1.44-2.54-2.95-5.21-4.19-7.42-1.31-.54-2.15-.88-3.69-1.52,2.12-.61,3.24-.93,4.72-1.36-3.37-1.63-6.4-3.1-9.71-4.71-.09,1.12-.16,1.9-.22,2.65,1.33.58,2.51,1.09,3.73,1.62-.77.89-1.24,1.43-1.46,1.68,1.36,1.77,2.42,3.17,3.58,4.48.62.33,1.15.75,1.67,1.17l-.61.53c-.45-.49-.9-.98-1.35-1.46.13-.11.25-.22.29-.24-2.47,1.05-4.68-2.75-7.39-.07-4.35-23.83-10.02-34.9-33.45-48.35-18.64.9-58.14-16.61-66.69,8.97v6.04c-4.72.59-7.4,2.59-8.02,5.99,1.22,1.26,2.56,2.66,3.84,3.99-3.86,4.83-4.18,11.34-7.17,16.78-4.33,7.87-12,14.07-18.45,20.6v7.35c-6.7,2.98-10.86,7-11.81,13.59-1.93,1.53-4.07,3.23-6.22,4.93.98,6.82-7.35,11.42-7.52,18.39,1.74,1.23,4.02,2.85,5.63,4-.99,2.78-1.72,4.8-2.45,6.85-1.36-1.91-2.62-3.7-3.89-5.48-.44.17-.87.35-1.31.52.7,1.64,1.4,3.27,2.05,4.79-.91,3.35-2.94,6-6.1,7.95,1.78.61,2.92,1.01,4.11,1.42.24,6.9-2.33,8.44-7.88,13.46.86,3.54,6.94,2.82,6.52,8.74,1.13-2.79,1.53-3.8,1.94-4.79l8.49.21c-2.03,2.44-3.43,4.13-3.79,4.56.26,3.85,2.48,6.53-1.28,8.96-1.35,1.31-2.7,2.62-4.42,4.3-1.09-2.03-1.74-3.23-2.39-4.44-2.37,1.4-4.66,2.75-7.46,4.4,2.14.7,3.29,1.08,4.44,1.45-.08.35-.16.7-.24,1.05-2.44-.43-4.87-.86-7.66-1.36.71,2.48,1.43,5.02,2.3,8.08-5.84-.56-5.69,4.05-8.32,6.15.22.21.44.42.66.64.89.23,1.79.45,2.89.74v9.92c-2.66-3.26-4.35-5.32-5.95-7.29-1.38.99-2.05,1.47-3.45,2.47.25-3.55-1.55-5.27-4.25-5.76-1.96,1.21-14.53,6.6-13.74,9.27-10.18,4.65-40.54,14.82-41.88,26.46,1.09.65,2.67,1.6,4.8,2.87-3.36.41-5.27,3.26-7.99.81-9.77,8.44-22.06,13.48-30.13,23.61,1.13.36,2.26.71,3.54,1.11-1.17,1.01-2.12,1.83-2.6,2.24-2.36-.64-4.41-1.2-5.85-1.6-10.49,7.09-22.23,11.18-32.36,18.14-1.71-1.96-2.93-3.36-4.36-5-4.7.73-9.07,1.4-14.26,2.2-1.22-1.58-2.72-3.51-5.19-6.69.87-4.82,2.09-11.54,3.26-18.01-1.13-.39-2.08-.72-4.47-1.55,2.54-.41,3.46-.56,4.51-.72.93-2.44,1.91-5.02,2.88-7.58-1.38-.99-2.72-1.95-4.07-2.91-3.56-.05-3.37,11.37-8.21,13.43,1.1-2.06,3.33-9.21.17-9.69-.03.56-.47.71-1.21.04-.45-.07-.11-1.13.24-2.19.25.31.37.58.53.85,1.31-2.28,1.98-3.38,2.72-4.58-.74-.84-1.49-1.69-2.26-2.57,2.19-.9,4.36-1.79,6.41-2.63,2.72,1.64,3.26,4.08,1.62,7.34l5,.1c5.28-12.14,15.31-20.23,29.21-26.22l7.16.16c-1.45-1.65-2.99-3.4-4.64-5.28l-6.55-.15c-.84-1.9-1.73-3.93-2.06-4.67,10.42-14,40.06-50.12,15.8-65.6.93-1.32,1.53-2.16,2.13-3-2.7-1.15-5.23-2.22-7.7-3.28-.08-1.53-.16-2.92-.23-4.29-2.24-.14-4.52-1.63-3.77,1.32.81-.05,1.13.33.31,1.03,0,.18-.27.2-.64.16-13.78,2.3-19.84,14.59-31.23,18.89-.89-.6-1.65-1.11-2.4-1.62-1.81.75-3.47,1.44-5.27,2.18-.82-1.57-1.46-2.8-2.29-4.4-2.09.48-4.15.95-6.52,1.5-.18-.14-.87-.68-1.84-1.43-.3,1.03-.53,1.82-.96,3.26,4.95,1.19,9.73,2.35,14.45,3.49v1.74c-4.63,3.15-8.46-1.92-12.32-1.33-1.61.95-2.84,1.68-5.93,3.51l13.46.34c-3.92,2.89-6.62,4.87-7.09,6.62-.19,3.99-2.72,4.72-6.93,2.68,3.09-.99,5.58-1.78,6.93-2.68-10.52.03-32.44,9.63-41.11,5.62,1.49-5.02,2.9-9.76,4.17-14.02-7.12-4.88-13.89-9.62-19.19-16.35-4.7.29-7.19,2.54-7.46,6.75-3.22,1.35-6.29,2.63-9.42,3.94-16.96-7.04-33.41,27.66-42.2,37.08-8.88,9.53-41.88,30.16-42.01,41.42l3.46.07c.36-.95.76-1.97,1.24-3.22l3.87.08c-.69,3.92-3.76,5.31-7.37,7.71-.6-2.12-.96-3.36-1.2-4.65-8.43,5.91-16.53,12.37-26.48,16.39-8.85,3.57-19.91,1.95-26.51,9.59-10.53,4.05-18.86,7.26-27.01,10.39-.31,2.55-.59,4.76-.78,6.29-1.77.63-2.67.95-4.08,1.45,2.52,1.08,4.18,1.79,5.19,2.22,4.58-2.19,8.86-4.24,13.29-6.36.41,1.4.65,2.21,1.06,3.6l15.99.3v-3.59c-1.96-.85-3.93-1.7-7.62-3.3,4.26.5,12.79-4.79,17.95-5.48v-3.13c1.77-.19,3.61-.4,5.31-.59,1.05-2.17,2.72-3.86,4.84-5.17-1.75-.15-3.65-.18-5.96-.23q3.42-1.6,5.96.23c3.96.4,6.56-1.88,9.67-3.07.73.65,1.45,1.3,2.39,2.13-2.78,2.61.11,9.15-7.78,8.32.49,2.73-1.14,4.3-4.64,5.64-1.51-1.77-3.15-3.69-4.48-5.24-1.73.36-3.52.74-5.32,1.11.62.95,1.23,1.9,2.41,3.72-3.01-.49-5.5-.9-7.84-1.28-1.48,1.92-3.18,4.13-4.89,6.34.69.76,1.38,1.52,2.07,2.27-.69.44-1.38.88-2.07,1.32-.69,1.18-1.38,2.37-2.07,3.55,2.76.5,5.53,1,9.55,1.73.11-.4.54-1.94.97-3.48.48.47.95.93,1.42,1.39-.62-1.36-1.24-2.72-2.09-4.59l6.1.12c.27,1.35.6,2.96,1.05,5.15,1.14.02,2.39.04,3.64.24v-3.14c4.21-1.51,8.54-3.06,14.94-5.35.64-.51,3.04-2.41,6.05-4.8.96,1.56,1.5,2.43,2.02,3.27-7.64,4.32-14.44,7.44-23.01,10.02-1.95,3.48-5.18,5.49-9.79,5.26-.52,1.35-.93,2.38-1.3,3.34-1.3-.02-2.32-.04-3.01-.38-.97,1.55-1.77,2.69-2.72,4.04.79.92,1.54,1.78,2.29,2.64-.95.81-1.9,1.62-3.19,2.72-1.57-2.12-3.09-4.17-4.97-6.7,2.76-.94,5.42-1.84,8.6-2.71-.34-.55-.34-1.43-.34-2.9-3.98,1.05-7.82,2.07-11.92,3.16-.26-1.24-.43-2.04-.69-3.33,2.7-.19,5.23-.36,8.55-.6-1.53-1.42-2.24-3.12-2.13-5.1-1.84,1.14-3.69,2.29-5.75,3.57l-9.11-.17c-.53.83-1.47,2.29-2.25,3.5-4.26-1.88-7.73-3.41-11.47-5.06-.31.2-1.33.85-2.47,1.58-1.36-.9-2.39-1.58-4.03-2.66-1.9,2.5-6.36.88-8.08,3.76,1.55.36,3.29.99,5.15,1.65,2.35-2.57,5.64-1.1,9.15.1-2.43.91-4.86,1.81-8.04,3-.2.36-.87,1.53-1.64,2.9-1.43-.59-6.17-3.84-6.96-4.85.78-.83,1.56-1.66,2.35-2.8-5.34-.29-8.44,3.35-12.81,5.14v-3.49c-1.37.14-2.73.28-4.5.45,1.12,1.08,1.74,1.67,2.16,2.07-.65,1.01-1.24,1.91-1.82,2.81l4.16.07v3.6c2.58-.09,5.49.86,7.27-1.69.96.86,1.91,1.71,3.32,2.97-3.64,1.18-7.19.32-10.58.52-.86.59-1.72,1.17-2.59,1.76-.52-.61-1.05-1.22-1.57-1.83-.58-.41-1.15-.83-1.72-1.24.58-.19,1.15-.37,1.72-.56v-3.6c-1.35-.2-2.7-.4-4.39-.65,1.05-1.05,1.63-1.62,2.46-2.45-2.55-.25-5.11-2.19-6.3,1.06.66.34,1.23.77,1.79,1.19l-.66.56c-.48-.5-.97-1-1.45-1.5.14-.12.27-.23.31-.25-1.46.86-2.83,1.63-4.21,2.41,1.41,1.54,2.69,2.92,4.32,4.7l-7.04-.12c-2.57-1.62-4.43-2.79-6-3.77-3.71,2.68-6.9,4.99-10.09,7.3,4.4-.79,8.82-1.41,13.29-1.85-4.56,5.32-9.78,5.79-15.38,5.42v3.73s-14.56-.25-14.56-.25c.13,3.04-1.39,4.62-4.25,5.23-.92,1.17-1.84,2.34-2.92,3.7l-13.72-.23c-.77,1.16-2.31,3.48-3.73,5.61-3.41-.89-6.02-1.57-9.29-2.43,1.32,2.05,2.09,3.25,3.22,5.01-8.11-1.42-14.46.66-22.71.19-9.41,6.64-33.16-5.47-41.29-10.59,9.04-7.62,8.21-22.49,21.47-24.64,1.59-7.1,3.14-14.02,4.7-20.95.86-.17,1.81-.37,2.75-.56,1.14-2.9.51-7.17,6.37-6.77-.47,2.01-.83,3.59-1.44,6.2,2.81-2.34,4.55-3.78,6.26-5.21,0-1.54,0-3.04.11-4.5-1.35-.08-2.6-.18-3.84-.29-.27-.34-.54-.68-.81-1.02,1.44-.44,2.87-.89,4.15-1.28.03.15.3,1.33.49,2.58,17.99-8.88,29.3-12.56,43.78-26.43-2.49-.19-4.11-.23-5.97-.27-.52-3.79,2-5.94,7.56-6.46.68.6,1.65,1.46,2.61,2.31-1.46,1.43-2.93,2.86-4.21,4.41,16.49-2.12,27.96-18,42.34-23.64v-6.4c2.87.72,5.19,1.3,7.87,1.97,1.79-2.78,3.62-5.63,5.34-8.29,1.1-.25,2.02-.45,2.68-.6-.69-1.58-1.3-2.97-2.04-4.65,3.02.04,5.7-1.76,6.56,1.63,16.38-4.23,41.69-23.6,28.87-41.02,8.76-9.31,3-20.82,3.88-30.79-2.32-3.43-3.56-5.27-4.34-6.42-4.73-1.29-6.38,1.29-8.45,2.9-3.22-2.07-6.41-4.13-9.24-5.95.69-1.6,1.28-2.97,1.87-4.34-.46-.25-.91-.49-1.37-.74-1.12,1.38-2.25,2.76-2.87,3.52-5.15-2.76-9.61-5.16-12.77-6.86-7.38-.79-13.33-1.43-20.47-2.2-.07.04-1.42.73-2.96,1.54-.92-1.72-1.58-2.97-2.24-4.19l-3.22-.09c-2.1,2.41-4.16,2.36-6.26-.18-1.71,1.76-3.43,3.53-5.01,5.16-4.94-2.72-7.53,2.78-13.33,1.06-.42-1.06-.84-2.12-1.12-2.84-1.83.52-3.45.97-5.39,1.52v-10.7c.29-.17,1.78-1.03,3.26-1.9-.12-.22-.24-.44-.35-.65-3.14.88-6.28,1.76-8.81,2.46.52,2,.9,3.44,1.42,5.42-7.04-3.16-13.11-5.9-19.13-8.61-2.37,1.93-4.29,3.51-5.19,4.24-5.11,18.65-20.05,34.05-25.61,53.1.77,2.59,1.4,4.71,1.96,6.59-13.93,8.24-15.53,11.7-14.7,30.8,2,.77,3.83,1.48,5.42,2.09.89-.51,1.39-.8,2.13-1.23.43,2.43.85,4.76,1.26,7.09.48-.02.95-.04,1.43-.06v-8.83c-.7-.77-1.4-1.54-2.11-2.31.7-.44,1.4-.88,1.73-1.42.68-3.62,1.74-7.14,3.16-11.84,3.02,5.72.15,8.83-3.16,11.84.38,1.3.38,2.51.38,3.72,2.11-1.16,4.21-2.32,6.31-3.48.65-1.78,1.31-3.55,2.11-5.74,2.57,2.42,4.43,4.18,6.4,5.84.67.34,1.24.78,1.81,1.21l-.66.56c-.49-.51-.98-1.01-1.47-1.52.14-.11.27-.23.32-.25-1.21.62-2.32,1.15-3.74,1.82l-2.66-.06v4.23c3.58-.84,6.25-1.46,9.38-2.2,1.53,1.08,3.44,2.41,5.34,3.75,3.69-2.43-.74-7.43-4.87-8.36,3.1-1.52,5.73-2.81,7.07-3.47,3.05.57,4.63.87,6.2,1.17-.13,2.95.77,6.05-1.5,8.23,1.42,1.06,2.51,1.87,3.6,2.69,5.83-.23-2.43-5,1.16-7.03.77.55,1.47,1.06,2.34,1.69,2.93-3.86,3.46-7.96,1.61-12.32,1.15-.33,2.16-.62,3.85-1.11-2.12-.77-3.32-1.2-4.73-1.71.68-.69,1.27-1.29,1.82-1.85-.76-1.16-1.53-2.35-2.28-3.51,2.12-1.71,3.87-3.12,4.62-3.72,9.73-2.38,24.26-13.3,34.94-11.06,23.02,4.83,9.57,22.7,6.43,33.77-16.11,7.54-33.45,11.24-47.97,20.57,1.76,1.06,3.13,1.89,4.78,2.65,1.33-1.43,2.25-2.62,3.53-4.26,1.84,1.43,3.22,2.49,4.7,3.63-2.02.84-3.72,1.55-5.56,2.31-.7-.51-1.67-1.22-2.67-1.69-2.09,1.22-3.91,2.38-6.04,3.73-.41-2.25-.7-3.9-1.05-5.81-1.85,1.51-21.34,10.73-22.86,9.39.6-1.22,1.26-2.57,2.36-4.81-2.57.85-4.16,1.38-5.48,1.82-1.06-.65-1.86-1.14-2.55-1.56-2.98,1.16-5.67,2.21-8.3,3.24-.53-1.39-.89-2.33-1.85-4.85-1.45,6.29-2.53,10.95-3.7,16-1.09-.2-2.27-.42-3.36-.62v-3.13c-.56-.01-1.15.03-2.33,1.12.63,1.31.13,2-1,1.01-.45-.02-.18-.94.15-1.93-.06-1.43-.65-2.09-1.45-2.96-1.76,1.53-2.92,2.55-3.16,2.76-1.7,10.8-3.45,21.59-5.27,32.38-7.24,6.57-8.63,12.41-11.92,20.99,1.29,1.14,2.54,2.23,3.83,3.36v7.44c-3.91,2.83-7.84,5.68-11.74,8.5-2.17,3.19-4.12,6.54-5.94,9.98.22-.03.37-.05.62-.09v3.53c-.83.12-1.64.24-2.59.38-7.89,16.44-11.4,34.94-7.24,52.46,2.24,9.45,6.32,17.29,14.63,23.97,7.01,5.63,16.13,9.2,25.49,6.71,1.72-.46,3.28-.47,4.68-.2-.04-.22-.02-.38-.07-.62,6.69,1.05,13.34,2.09,19.94,3.13.22-.88.43-1.71.67-2.67,2.73-.16,5.36-.32,7.67-.47.33-1.39.53-2.21.79-3.3l7.13.09c.57-1.36,1.02-2.4,1.43-3.38,1.85-.15,3.5-.29,5.48-.45,3.46-7.2,19.88-12.46,27.66-16.3-1.05,2.16-1.48,3.07-2.91,6.02,5.82-3.11,9.39-5.02,13.06-6.98l5.64.08c2-2.16,4.22-4.57,6.79-7.35,1.64.43,3.74.98,6.03,1.59,1.67-1.42,3.63-3.09,5.32-4.52,13.79-1.46,22.5-11.06,33.4-17.54,7.41,3.71,18.68-4.24,26.21-5.75,9.34-1.87,19.6-3.02,28.85-4.5.37-.56.85-1.05,1.33-1.53.22.19.43.38.65.58l-1.69,1.22c-.13-.12-.27-.24-.3-.27-.66,3.93-5.86,3.28-7.97,6.16v7.53c1.43.54,2.61.98,5.11,1.92-3.54.45-5.43.69-8.24,1.05,2.29.97,3.67,1.55,4.64,1.96v4.37c-3.41.92-7.48-1.09-9.93,3.46.78,4.71,1.71,10.33,2.69,16.23,3.39,2.99,7.04,6.22,10.72,9.47,4.69.06,14.99-.2,18.58,1.63,13.51-6.33,14.29-13.16,22.64-21.65,10.35-10.52,21.6-20,29.78-32.41,8.74-13.25,14.61-28.54,23.29-41.98,3.13-4.85,16.42-17.48,15.11-21.65-1.82-.3-3.7-.62-5.28-.88v-6.36c1.5-.92,2.78-1.71,4.35-2.67,1.69,2.95,3.09,5.39,4.26,7.44,4.7-2.52,16.27-13.47,21.51-14.18.6-5.32,24.24-23.23,29.25-28.97,9.08,6.43,37.75-6.62,43.42,4.88-1.17,7.3-3.21,13.32-7.53,18.48,4.67,16.51-17.32,27.19-8.7,45.67,2.84,1.02,6.25,2.24,9.64,3.45.95-1.94,1.53-3.09,2.6-5.27,2.19,2.36,3.62,3.91,5.7,6.16-3.22.36-5.08.56-5.78.64-3.34,11.52,1.97,27.17,13.04,35.05,10.32,7.35,20.92,4.35,32.51,6.1,8.95-2.58,17.46-7.14,25.38-13.09-2.1-.33-3.94-.61-5.79-.9,4.63-.36,7.44-2.74,9.3-5.23-.45-1.88-.79-3.27-1.1-4.57,2.21.65,3.79,1.11,6.95,2.04-1.9-1.88-2.53-2.51-3.51-3.49,1.88-.83,3.67-1.62,7.36-3.24-1.39,3.11-1.99,4.45-2.76,6.15,3.32-.2,6.4.51,9.23,2.12.15-.27.3-.55.44-.82-.64-.63-1.27-1.26-2.07-2.05,3.66-.88,7.23-1.74,11.78-2.84,7.07-6.9,14.85-14.5,24.14-20.33,4.6,1.33,3.91,7.04,10.58,6.58,2.01-2.84,4.8-6.79,7.59-10.74-4.55.49-8.33,2.5-11.96-.19-1.25.76-2.52.83-3.8.9-.05-.38-.11-.76-.16-1.14,1.3-.2,2.6-.4,3.9-.6.03.51.06,1.02.06.84,2.48-3.44,6.39-2.62,10.3-2.78-4.45-2.7-4.77-2.15-6.45-6.94,3.7,1.08,6.33,1.84,8.53,2.48,5.19-4.37,2.56-8.98,1.29-13.38,4-1.26,7.34-4.89,11.63-.77.61-1.53,1-2.53,1.58-3.99,1.59.85,2.86,1.54,3.43,1.85,2.14-.38,3.7-.66,6.84-1.23-4.47,3.22-3.34,6.01-2.97,8.78,6.05-.42,7.55-1.2,7.55-4.35-1.19-.79-2.79-1.84-4.4-2.9,3.41-3.2,16.87-27,15.7-31.58-2.2-2.11-3.68-3.53-5.02-4.81-2.08.6-3.94,1.15-5.8,1.69-.46-.55-.91-1.09-1.37-1.64,2.27-1.95,3.7-4.6,7.57-5.6.78,1.41,1.44,2.59,1.84,3.32,1.95-.4,3.65-.74,5.26-1.17.36-.55.82-1.02,1.28-1.49.21.19.42.38.63.57-.54.4-1.08.79-1.62,1.19-.13-.12-.26-.24-.28-.27-.61,1.61-1.33,3.14-2.21,5.03,1.75.16,2.61.24,3.49.33.63-1.23,1.21-2.37,1.76-3.45l3,.07c.7-2.06,1.39-4.13,2.11-6.27,2.12-.87,4.3-1.76,6.39-2.61,1.29,1.49,2.33,2.69,3.35,3.88.92-1.68,1.86-3.36,2.98-5.35.99.29,2.06.59,3.3.95-1.04,3.18-2.68,4.91-6.28,4.4-.85,1.62-1.72,3.23-2.79,5.21l-9.06-.2c1.25,5.73-5.99,15.27-8.14,20.37,4.16-2.18,6.64-3.48,10.8-5.67-1.83,5.5-6.39,5.14-8.36,9.67,2.7.17,5.16.32,7.38.46v5.82c-2.33,1.38-4.09,2.42-5.71,3.38v5.69c-2.58,4.75-4.42,8.14-6.44,11.87,1.68.95,20.08,10.5,21.33,10.17,6.17,4.5,9.67,11.32,16.65,15.09,2.02,6.91,8.87,8.05,14.91,10.35.78-1.44,1.42-2.63,2.24-4.15,5.01,2.38,10.04,2.42,14.88.36,1.93,1.54,3.57,2.85,5.01,3.99,4.99-.79,9.53-1.5,14.36-2.26,1-1.41,2.12-2.97,3.38-4.74,1.64.76,3.26,1.51,4.95,2.29,2.55-1.7,4.3-4.65,8.2-3.56,2.74-3.29,19.08-6.65,23.28-8.4,6.39-10,20.03-10.98,26.43-19.65-.42-.43-1.04-1.05-1.47-1.49,1.57-1.51,3.07-2.97,4.57-4.42l1.84,1.68c7-5.29,14.02-10.59,20.39-15.39.26-2.31.41-3.65.55-4.94,1.92.04,3.21.07,4.5.09,1.65-5.51,6.83-6.26,12-7.01,1.72-3.77,3.77-7.15,9.73-6.41,2.59-2.76,5.32-5.66,7.98-8.49,1.29-.05,2.52-.09,2.71-.1,9.29-10.48,26.96-16.82,40.06-23.17,14.44-6.99,24.86-15.1,35.55-27.05,13.35,12.38,46.99,14.75,46.99,33.16,4.4,5.91,11.23,7.72,18.03,9.96-16.17,5.81-23.47,18.3-36.31,24.92-.4-.3-.82-.63-1.05-.81-2.32.72-3.92,1.23-6.35,1.98,3.14.6,4.88.94,6.43,1.24-.95,1.63-1.77,3.04-2.6,4.47-2.79.75-5.6,1.52-8.43,2.28-.22.75-.44,1.53-.75,2.56-5.19-.38-8,1.78-7.52,6.41-7.13,4.02-13.92,7.84-20.97,11.81-.73,2.53-1.55,5.41-2.4,8.35-2.69,3.18-9.71,12.97-14,14.33l-6.03-.11c-7.58,10.09-17.87,16.31-24.59,26.02-7.56,10.91-8.38,19.15-18.8,28.35,1.32,2.28,2.39,4.13,3.5,6.04,3.61-1.5,6.83-2.84,10.04-4.17,12.31-20.04,44.12-24.84,53.07-46.9,11.61,4.81,33.3-7.4,43.03-12.08,1.36-3.14,3.73-5.98,1.67-9.51-2.76-.88-5.56-1.78-8.39-2.68-.67-1.3-1.39-2.7-1.93-3.74,8.52-5.52,26.56-24.28,36.19-26.1,1.01.6,2.01,1.19,3.28,1.95,10.16-5.27,20.95-4.94,31.23-9.19,8.58-3.55,14.67-10.13,21.36-15.83,6.84-18.45,15.77-23.13,6-43.55,7.06-1.31,7.07-6.86,9.05-11.16,1.1.37,1.93.65,2.76.94-1.3,3.77-2.55,7.39-4.13,11.97,8.18-2.46,13.07-6.45,16.1-11.86,8.65-3.22,16.19-7.29,21.93-13.54,3,1.1,5.92,2.16,8.06,2.94,4.25-.6,8.36-1.63,12.33-3.06,1.61-2.77,9.37-8.83,16.27-12.62,7.95.53,15-1.36,21.64-6.79,2.44,7.8,4.68,14.96,6.97,22.26-4.35,6.67-6.72,15.09-14.09,19.57v10.1c1.11-.89,1.76-1.41,2.3-1.84,6.12,6.33,1.21,12.94.79,20.76-1.14.86-3.18,2.41-5.21,3.94,1.23,1.15,2.34,2.19,2.68,2.51-.43,3.1-.78,5.61-1.28,9.18,1.72-1.21,2.34-1.65,2.96-2.09,2.92,3.92,9.14,6.51,16.6,7.07,4,3.17,7.68,6.08,10.54,8.35,11.34-6.12,26.71-13.46,40.32-14.14,3.09-1.93,4.76-2.97,6.31-3.94-.77-.95-1.22-1.51-1.79-2.22,7.61-4.43,14.89-8.67,22.36-13.02.79-2.79,1.66-5.84,2.44-8.57,3.71-1.56,7.21-3.04,11.15-4.7-1.07-1.43-1.73-2.31-2.41-3.22,2.02-2.17,2.43-6.04,6.81-6.22,5.37-8.46,35.05-30.24,44.97-32-.9,2.2-1.63,3.99-2.45,6,2.36.4,4.04.69,5.99,1.03-6.21,5.72,6.93,25.76-6.96,29.74-2.44-.65-4.17-1.11-6.73-1.79,5.11,15.61-9.2,44.69,15.8,51.08,9.99-10.05,13.1-23.19,16.97-36.65.61-.53,1.7-1.49,2.43-2.13v-8.21c-2.43.76-4.39,1.37-6.73,2.09-.09-1.52-.14-2.29-.22-3.66l6.77.17c7.93-10.54,14.54-20.48,19.34-32.52,2.6-6.52,2.79-13.27,8.67-18.17v-7.09c9.08-6.18,19.79-22.7,24.53-31.96,4.5,7.49,11.1,13.78,18.67,19.02,14.6,3.2,8.87,36.48,10.15,47.12,7.06,1.06,3.43,7.71,7.65,10.32,5.34,3.3,9.57,1.64,15.43,2.63,14.72-13.58,32.89-24.25,45.37-41.05v-10.01c5.19.04,11,1.45,13.53-5.21,1.31,3.55,2.31,6.27,3.02,8.21,16.85,11.89,33.66,21.74,52.96,29.91,25.43,10.76,38.3.81,62.14-6.13,1.03-2.1,2.05-4.18,3.04-6.21l8.62.24c3.66-1.82,7.04-3.5,9.04-4.49,3.76-5.98-.39-11.68,1.32-16.42,2.85-2.28,5.75-4.6,8.65-6.92-.95-3.42-4.75-3.36-6.98-5.04-.32.52-.73.96-1.14,1.4l-.56-.54c.48-.37.96-.74,1.45-1.12.12.11.23.22.25.26,1.4-2.21,2.89-4.35,4.3-6.38,11.45,6.32,38.38-8.1,50.66-10.29,4.7,3.41,9.96,1.2,14.59,2.19,1.12-1.09,1.86-1.82,2.55-2.5-.58-.7-1.06-1.27-1.78-2.13,7.05-1.87,13.78-3.65,20.74-5.5,2.1-1.48,4.52-3.18,7.31-5.13.09-.71.25-2.01.64-5.19-.01,0,1.27-.75,2.67-1.59-1.69-1.05-3.23-2.01-4.97-3.1,1.99-1.43,3.89-2.81,5.94-4.29.95,1.83,1.53,2.95,2.33,4.49,5.1-2.94,10.58-4.89,14.74-9.48-2.29-.46-3.89-.78-5.61-1.13.86-1.04,1.51-1.83,2.23-2.7-.76-1.08-1.35-1.91-2.1-2.97,24.78-3.41,50.91-1.6,76.33-2.17,2.43-2.37,4.18-4.08,5.57-5.43l4.55.15c.93-1.36,1.95-2.84,2.82-4.12,8.1-2.17,17.6-.53,24.47-2.79,1.02.52,2.17,1.11,3.78,1.93.34-2.08.58-3.57.81-4.99,1.16-.34,2.16-.63,2.92-.85.22-1.02.38-1.76.41-1.93,3.46-1.18,6.42-2.19,10.9-3.72,7.66-.06,23.4-.19,28.59-6.69-2.37-4.41-2.37-10-5.87-12.2ZM1951.57,136.43c.04.28.08.57.13.85-1.05.17-2.1.35-3.15.52-.04-.49-.07-.98-.1-1.47l3.13.1ZM1666.69,133.17c1.82,2.24,2.92,3.6,4.48,5.51-1.9.31-2.98.49-4.48.73v-6.25ZM1110.98,350.2c-.07-.52-.15-1.04-.22-1.56l3.43.07c.05.29.11.57.16.86-1.12.21-2.24.42-3.37.63ZM1114.79,342.91c-.06-.39-.11-.78-.17-1.16,1.07-.16,2.14-.32,3.21-.48-.77,1.44-1.89,1.58-3.04,1.65ZM1119.68,341.4c1.93-2.61,4.22-3.98,6.69-5.36.29,1.07.44,1.61.77,2.79-2.41.83-4.93,1.7-7.46,2.57ZM1139.67,352.17c-.05-.3-.09-.59-.14-.89,1.15-.2,2.3-.39,3.44-.59l.11,1.54-3.42-.06ZM1152.09,345.23c-.05-.29-.11-.57-.16-.86,1.12-.21,2.23-.42,3.35-.63.07.52.15,1.04.22,1.55l-3.42-.07ZM1075.2,368.81l-4.15-.07v-.9s4.15.07,4.15.07v.9ZM1050.62,273.91c-.1-1.26-.27-3.48-.53-6.82,2.58,1.71,3.99,2.64,7.19,4.76-3.5,1.08-5.11,1.58-6.66,2.06ZM1046.08,225.78v-2.62c1.05-.16,2.21-.34,3.65-.57.27,1.18.46,1.98.77,3.29l-4.42-.11ZM1057.54,252.68l1.1.93c.19-.66.68-1.13,1.16-1.61.22.19.44.39.66.58l-1.7,1.21c-.14-.12-.27-.24-.41-.36.2,1.24.11,2.3-.01,3.74-1.46-.12-2.58-.21-3.97-.32,1.26-1.66,2.21-2.91,3.17-4.17ZM1053.37,213.87c-3.9-.06-4.82-3.18-7.94-5.07,7.99-.17,8.55.28,7.94,5.07ZM1000.14,185.75l4.19.12v.9s-4.19-.12-4.19-.12v-.9ZM1002.65,188.15q1.56,4.54-6.82,7.24c.41-3.96,4.1-4.91,6.82-7.24ZM974.77,193.82c.14-2.7.25-4.71.37-6.8,1.27-.37,2.47-.73,3.97-1.17-.6-.68-1.15-1.28-1.96-2.19,1.31-.95,2.68-1.96,3.89-2.84,3.71,2.01,3.07,5.79,6.68,8.77-2.87,1.04-5.5,1.99-8.38,3.04-.06,1.04-.13,2.19-.3,5.02-3.1,1.54-5.85,3.46-8.24,5.76v4.62c-3.88-1.14-6.16-2.82-8.26-4.38,3.53-6.43,4.43-7.65,12.24-9.82ZM960.81,231.31l1.05.03v3.62s-1.05-.03-1.05-.03v-3.62ZM948.56,241.92c-2.27-3.33.9-3.87,2.42-5.45,2.27,3.33-.9,3.87-2.42,5.45ZM949.24,231.5c1.78-.25,2.7-.37,4.09-.57.27,1.11.51,2.11,1.26,5.18-2.65-2.28-3.71-3.2-5.35-4.61ZM960.29,247.16l-4.21-.1v-.91s4.21.1,4.21.1v.91ZM955.88,243.05c.89-1.99,1.22-2.72,1.78-3.99-.85-.32-2.08-.78-3.31-1.25,0-.31-.02-.62-.03-.93l10.89.27c-1.84,3.28-4.95,5.24-9.34,5.89ZM972.9,214.38c-.07-.26-.13-.47-.2-.72-1.77,1.54-3.56,2.31-5.56,3.16-.23-.79-.46-1.56-.88-2.96,2.26-.19,4.31-.36,6.34-.54-.43-1.5-.86-2.77-1.28-3.91,1.79-1.26,3.57-1.28,5.37-1.23,1,3.51-1.07,4.61-3.79,5.33,0,0-.02.01-.03.02.01.28.02.57.03.85ZM976.56,217.23v3.62s-1.05-.03-1.05-.03v-3.62s1.05.03,1.05.03ZM977.04,249.92c.06-1.16.15-2.23.24-3.3.39-.22.77-.44,1.16-.67.55,1.25,1.09,2.5,1.57,3.61-.17.02-1.53.22-2.98.35ZM981.75,218.34c-.87-1.57-.28-2.75,1.96-3.5-.86,1.59-1.48,2.68-1.96,3.5ZM981.54,210.24c1.06-1.59,2.38-1.66,3.71-1.73.06.39.11.78.17,1.17-1.29.18-2.59.37-3.88.55ZM983.38,202.93c-.32-1.38,1.04-3.44-2.1-3.68,2.32-2.36,4.63-4.72,6.73-6.85l5.13.14c1.19,1.74-8.92,9.61-9.76,10.39ZM991.77,220.79l-6.29-.16v-.9s6.29.16,6.29.16v.9ZM992.44,210.73c-.31-2.11-.55-3.75-.78-5.39.46-.18.92-.36,1.37-.53.67,1.24,1.34,2.49,2.01,3.75-.09.08-1.04.87-2.6,2.18ZM989.98,202.42c2.28-1.58,3.01-4.77,7.14-4.6-2.53,4.08-2.55,4.06-7.14,4.6ZM1000.49,203.14c-.47-2.31-1.12-4.49,4.46-2.29-1.62.83-2.91,1.49-4.46,2.29ZM1010.96,190.68v-3c.34-.03.69-.06,1.03-.09.25,1.01.51,2.03.76,3.04-.6.02-1.19.03-1.79.05ZM1017.32,296.31c-.4-1.35-.45-2.24-.45-3.13,2.27-.92,4.57-1.85,7.64-3.09.76,5.26,1.47,3.25-7.19,6.22ZM1040.18,274.53v-2.99c.33-.04.66-.08.99-.12.27.99.54,1.97.81,2.95-.6.05-1.2.1-1.8.15ZM1038.1,268.44v-6.47c1.6.31,2.75.54,4.81.95-1.66,1.91-2.84,3.26-4.81,5.52ZM1040.75,187.44q-3.92.18-4.37-3.88c1.38,1.23,3.13,2.78,4.37,3.88ZM1029.63,177.34c1.25-.06,2.16-.1,3.55-.16.14,1.1.26,2.08.43,3.41-1.58.06-2.76.11-3.99.16-.17-1.2-.09-2.26.01-3.41ZM1023.45,184.27c5.26.35,8.06,6.35,10.88,9.85-3.98-1.24-7.61-3.05-10.88-5.42v-4.43ZM1026.27,222.42c1.75-2.71,2.75-4.26,3.93-6.08,1.54,1.72,2.72,3.03,4.7,5.24-3.18.31-5.14.5-8.63.84ZM1029.59,265.86l5.88.14v2.98s-5.88-.14-5.88-.14v-2.98ZM1029.51,273.22c2.23,1.86,3.62,3.02,6.33,5.28-2.71,1.64-4.27,2.58-6.4,3.86-1.59-1.26-3.02-2.39-4.96-3.92,1.43-1.49,2.65-2.75,5.02-5.22ZM1024.87,271.18v2.99s-1.03.1-1.03.1c-.25-1.01-.51-2.02-.76-3.03.6-.02,1.19-.04,1.79-.06ZM1018.44,268.72v2.94c-1.12-.48-2.55-1.08-5.34-2.26,2.97-.38,3.89-.5,5.34-.68ZM1016.68,295.58c.17.26.34.51.51.77-.12.04-.2.06-.32.1-2.16,1.69-4.86,3.17-7.76,4.77-.3-1.07-.45-1.62-.78-2.81,2.7-.92,5.53-1.88,8.35-2.84ZM931.43,344.85c-.27-1.19-.54-2.37-.81-3.56.07,0,.14,0,.21,0,1.72,1.14,1.84,2.29,1.96,3.45-.45.04-.91.08-1.36.12ZM936.93,338.75c-.96,2.38-5.76-1.21-6.12,2.49-1.95-.01-3.11-.03-4.23-.06v3.63s.02.01.03.02c.54-.01,1.07-.03,1.61-.04-.53.06-.97.13-1.43.19,1.52,1.09,1.67,2.19,1.78,3.3-.45.04-.91.08-1.36.12l-.76-3.38c-2.35.33-3.96.66-5.9,1.08-.09-1.78-.21-3.98-.38-7.24,2.64.95,4.54,1.63,6.43,2.31v-3.63c-.7-.62-1.41-1.24-2.11-1.86l-1.64-.03c.3-.78.62-1.15.94-1.49.23.51.46,1.01.69,1.52l2.11.04c1.56-3.24,3.32-1.64,5.26.09.69-1.23,1.34-2.39,1.99-3.55l3.28.07c-.84,1.31-1.44,2.24-2.35,3.65.6.77,1.34,1.71,2.16,2.76ZM948.51,325.98c1.99-3.11,3.01-4.68,3.89-6.05l6.81.14c-.25.24-.5.48-.76.73-2.9,1.47-5.5,2.84-9.93,5.18ZM959.51,319.77c-1.03-1.58-1.07-3.18-1.07-5.41,1.7.47,2.93.8,5.21,1.43-1.67,1.61-2.89,2.77-4.14,3.98ZM966.07,316.58l-1.05-.02v-3.62s1.05.02,1.05.02v3.62ZM977.39,324.09c-.09-1.21-.17-2.19-.27-3.46,1.68-.07,2.91-.12,4.14-.18.07.07.14.13.22.2-.1.01-.19.03-.28.04-.36,1.54-1.84,2.34-3.81,3.4ZM981.96,320.58c-.58-1.45-.55-2.38-.47-3.27l1.16-.67c.54,1.25,1.09,2.5,1.57,3.6-.14.02-1.1.16-2.26.34ZM982.58,311.25l-8.09-.17c.96-1.91,1.67-3.3,2.6-5.15-.42-.73-1.08-1.89-2.21-3.86,5.11.96,9.65,1.82,14.7,2.77-2.55,2.67-4.87,4.62-7,6.41ZM983.56,303.5v-6.64c1.65.39,2.92.69,5.26,1.24-1.93,1.98-3.12,3.21-5.26,5.4ZM993.42,304.3c-1.16.06-2.35.11-3.32.16-.13-1.95-.14-3.53-.14-5.21,1.18-.07,2.1-.12,3.47-.2v5.25ZM993.64,294.22c1.41-.42,2.94-.88,4.48-1.34-.27-.53-.54-1.06-.81-1.59,2.38.9,4.76,1.81,7.55,2.86-4.2,4.23-7.32,4.16-11.21.06ZM1004.19,268.89c.55,3.61-1.94,4.52-5.68,5.39-.21-1.97-.37-3.56-.58-5.54l6.26.15ZM977.19,283.77c5.03,4.91,20.86-3.76,24.69-5.9-1.81,2.27-2.39,4.8-1.75,7.59-3.19,3.27-8.6.51-12.22,3.26.61,1.04,1.27,2.17,1.89,3.24-3.4,3.37-7.77,3.37-12.22,3.14-.5-1.84-.51-2.72-.51-3.85,1.62.89,2.51,1.38,3.89,2.14.09-1.22.16-2.21.27-3.66l-5.99-.13c.46-1.91,1.12-3.68,1.94-5.84ZM962.75,291.45c2.17-.05,4.74-.11,7.9-.19-.92,1.81-1.6,3.15-2.23,4.39,4.92,3.32,3.78-1.44,5.8-2.57.62.76,1.26,1.55,2.04,2.5-4.78,2.83-8.98,2.78-13.5,2.68v-6.81ZM936.94,297.49v-7.43c3.48-3.9,6.64-3.62,9.96-1.26.53-1.12,1.01-2.13,1.88-3.97.75,1.39,1.31,2.42,2.24,4.15-1.66,1.78-4.16,4.45-6.73,7.2l-4.25-.09c-.37.96-.77,1.99-1.17,3.02-2.42.54-4.85,1.08-7.54,1.68-.1-.28-.39-1.08-.93-2.53,2.13-.25,3.97-.47,6.53-.78ZM930.9,321.12c.84-1.5,1.78-3.17,2.81-5.03l4.68.1c2.93,1.8-1.95,5.89,2.95,7.14.32-1.37-1.05-3.49,2.11-3.58v-7.68c2.62.98,4.47,1.67,6.31,2.37v-6.14c1.69-1.13,3.27-2.19,6.71-4.49,2.96-.41,8.34-1.15,14.15-1.95-2.18,2.18-3.79,3.78-5.14,5.12-5.65-2.18-7.61,3.01-11.51,3.92.6.93,1.2,1.87,2.08,3.25-2.1.09-4.19.19-6.29.28-.44,4.05-1.6,5.03-6.31,5.31-.32,1.37,1.04,3.49-2.11,3.58v2.86c-3.82,2.11-4.48-.26-4.32-3.47-1.55,1.11-2.27,1.63-2.99,2.14-1.06-1.17-2.15-2.37-3.23-3.57-.02,1.08-.11,2.15-.2,3.21l-1.16.67c-.55-1.25-1.1-2.5-1.58-3.61.17-.02,1.54-.23,3.04-.45ZM928.77,300.44c-1.01.71-2.02,1.42-3.59,2.51-.29-1.73-.55-3.32-1.11-6.66,2.66,2.35,3.62,3.19,4.7,4.14ZM923.49,323.02c4.85,5.51,4.69,6.14-2.63,9.05-1.04-3.56-1.49-6.78,2.63-9.05ZM922.33,335.49c0,.06,0,.12.01.18-1.28,1.45-2.62,1.53-3.96,1.61-.06-.39-.12-.78-.17-1.18,1.38-.2,2.75-.41,4.13-.61ZM888.71,397.09v-2.99c1.13.66,2.42,1.42,4.11,2.4-1.33.19-2.27.32-4.11.58ZM918.34,399.75c1.18-.2,2.35-.4,3.53-.6.04.52.08,1.04.12,1.56l-3.5-.06-.14-.9ZM920.76,415.57c-.04-.52-.08-1.04-.12-1.56l3.5.05.14.9c-1.17.2-2.35.4-3.53.61ZM961.15,411.23c1.04.57,2.33,1.29,4.43,2.46q-5.1.27-4.43-2.46ZM967.33,408.63c-.52-2.59-.68-3.39-.94-4.64l3.42.05c-.52.96-1.19,2.19-2.49,4.59ZM979.75,427.35c-.08-.52-.15-1.04-.23-1.57l3.48.05c.05.29.11.57.16.86-1.14.22-2.28.43-3.41.65ZM979.58,421.54c-.04-.31-.07-.61-.11-.92,1.83-.2,3.66-.4,5.5-.6l.18,1.61-5.57-.08ZM1056.31,375.87v3.5c-1.06.16-1.99.29-3.38.5-.24-1.13-.46-2.14-.73-3.39,1.36-.2,2.3-.34,4.11-.61ZM1051.44,390.51c.2,2.29-1.64,1.6-3.04,1.7.06-2.13,1.62-1.77,3.04-1.7ZM1035.04,384.84c.25,1.12.5,2.23.75,3.35-1.86-.94-1.99-2.08-2.1-3.23.45-.04.9-.08,1.35-.12ZM1018.93,393.34c0,.07,0,.14,0,.22-1.99,1.48-4.02,1.54-6.04,1.59-.04-.4-.09-.81-.13-1.21,2.05-.2,4.11-.4,6.16-.59ZM1004.5,395.41l7.16.12c-2.7,1.67-4.3,2.66-7.16,4.43v-4.55ZM997.93,403.26c2.44-2.29,4.79-4.39,8.73-1.65-3.31-.53-4.86,4.31-8.73,1.65ZM1006.42,418.19l-4.19-.06v-.9s4.19.06,4.19.06v.9ZM1007.65,408.12c.22-.16.45-.32.67-.48.14.12.27.24.41.36,1.12-2.12,2.53-3.14,4.55-4.59.87,1.52,1.37,2.39,2.27,3.96-2.5.24-4.54.43-7.9.75ZM1019.94,402.59c-.91-1.62-1.84-3.27-2.79-4.96.86-.19,1.48-.33,2.72-.61,1.05,1.71,2.18,3.55,3.34,5.44-1.18.15-2.2.15-3.28.13ZM1027.56,395.43c-.12-1.39-.22-2.47-.3-3.34-1.46.16-2.95.59-4.49.9-.89.18-1.8.28-2.71.39,2.95-4.34,3.85-4.21,7.25-1.51,1.91.25,3.82.28,7.81.35-3.51,1.48-5.31,2.25-7.57,3.21ZM1035.89,399.13c-.06-.39-.11-.78-.17-1.17,1.36-.21,2.72-.42,4.07-.62,0,.06,0,.12.01.18-1.27,1.45-2.59,1.53-3.91,1.61ZM1040.6,397.51c.59-.92,1.21-1.36,1.82-1.77.53.61,1.05,1.22,1.58,1.83l3.84.06c-.78,1.28-1.78,2.47-3.84,4.89v-4.95s-3.39-.06-3.39-.06ZM1048.72,404.92c-.08-.52-.15-1.04-.23-1.56l3.45.06c.05.29.11.57.16.86-1.13.22-2.26.43-3.39.65ZM1052.28,390.49s.03,0,.05,0c.44-1.71,1.91-2.52,3.86-3.57.09,1.21.17,2.18.27,3.44-1.66.08-2.89.13-4.11.19-.02-.02-.04-.04-.06-.06ZM1056.29,397.36l-1.15.67c-.54-1.24-1.08-2.48-1.56-3.58.15-.02,1.34-.21,2.69-.42.19,1.22.11,2.28.02,3.33ZM1111.93,364.39c.22,1.08.43,2.09.71,3.46l-10.11-.18c-.01-.3-.02-.6-.04-.9,2.99-.75,5.98-1.51,9.43-2.37ZM1082.29,371.19l5,.09c-1.68,3.07-3.61,5.41-7.64,5.23.67-1.73,1.54-3.32,2.63-5.32ZM1065.11,383.53c-.09-1.2-.17-2.18-.26-3.44,1.56-.07,2.72-.13,3.87-.18-.27,1.79-1.7,2.59-3.6,3.62ZM1070.95,406.23c1.93-1.18,2.55-3.94,6.41-1.93-1.93,1.18-2.55,3.94-6.41,1.93ZM1084.26,378.43l3.09.05c-.73,1.83-1.67,3.51-2.7,5.31-.86-.08-1.8-.17-3.26-.31,1.51-1.45,2.46-3.14,2.87-5.05ZM1084.27,387.83c1.04,2.53,1.58,3.86,1.83,4.46q-2.17.42-1.83-4.46ZM1094.19,399.88l-.14-.89c1.15-.2,2.31-.4,3.46-.6.04.51.08,1.03.11,1.54l-3.44-.06ZM1099.72,374.74c-.33.21-.66.41-.99.62-.66-1.24-1.31-2.48-1.99-3.77l2.98.05v3.1ZM1087.65,370.68v-2.51c4.02-.85,8.11-.18,12.33.91-4.1.53-8.21,1.07-12.33,1.6ZM1102.6,384.18c-.24-1.14-.41-1.93-.74-3.51l3.4.06c-.73.94-1.57,2.03-2.66,3.45ZM1104.77,373.45c-.07-.52-.15-1.04-.22-1.56l3.43.06c.05.29.11.57.16.86-1.12.21-2.25.43-3.37.64ZM1114.22,375.42c-1.71-2.79-2.44-3.98-3.29-5.36l3.29.06v5.3ZM1114.89,382.25c-.05-.3-.09-.59-.14-.89,1.15-.2,2.3-.4,3.45-.59.04.51.08,1.03.11,1.54l-3.43-.06ZM1127.91,395.56c-.39-.49-.78-.98-1.17-1.46,2.57-1.28,5.14-2.55,9.47-4.7-1.03,3.75-3.8,5.8-8.31,6.17ZM1143.47,436.43l-4.12-.06v-.9s4.12.06,4.12.06v.9ZM1222.47,312.79c-1.58,1.46-2.49,2.31-3.57,3.31-1.15-.8-1.46-1.68-1.81-2.9,1.52-.12,2.62-.2,5.38-.41ZM1202.51,287.04c.33,1.52.5,2.31.76,3.49-1.24.2-2.37.38-5.82.94,2.51-2.2,3.51-3.08,5.06-4.43ZM1184.6,314.32v3.2c3.09-1.61,6.3-2.5,10.82-.74-6.28,3.51-12.04,6.72-18.63,10.4.75-2.82,1.2-4.51,1.66-6.21-1.09.53-2.18,1.05-3.56,1.72l-2.6-.05c0-5.22,7.4-7.2,12.32-8.32ZM1192.64,326.93v2.98s-5.81-.12-5.81-.12v-2.98s5.81.12,5.81.12ZM1183.65,343.01c-.51.95-1.16,2.16-2.43,4.53-.51-2.56-.67-3.35-.91-4.59l3.35.07ZM1178.89,338.93c-.24-1.13-.41-1.93-.74-3.49l3.37.07c-.72.94-1.55,2.02-2.64,3.43ZM1158.61,338.79c-.5-3.52-.73-7.15-.73-10.74l5.2.11c.51-1.27.91-2.28,1.43-3.59l5.56.11c-.62,1.25-1.26,1.87-2.19,2.73,2.2.36,4.08.67,6.44,1.06-.13,1.07-.25,2.08-.45,3.69-2.31-1.01-3.98-1.73-6.24-2.72-1.02,1.46-2.07,2.94-3.31,4.71.44.46,1.03,1.08,1.86,1.95-2.51.89-4.94,1.75-7.57,2.68ZM1171.46,341.47c.44,1.76.68,2.75,1.03,4.14l-7.36-.14c2.58-1.63,4.13-2.61,6.33-4ZM1166.28,367.62v-3.65c2.07.83,3.89,1.57,6.83,2.75-2.64.35-4.29.56-6.83.89ZM1188.04,360.28c-1.51.12-3.11.25-4.86.4-.42.98-.85,2-1.35,3.18l-3.39-.06v-3.42c-.17-.02-.27-.06-.42-.09-1.65.77-3.12,1.47-4.54,2.14,1.43-.84,2.67-1.58,3.84-2.29-2.76-.77-1.82-2.34,1.2-.73,4.62-2.85,7.07-4.82,8.11-7.79l-.17.14c.05-.07.11-.12.17-.2-.73-.24-1.29-.66-1.84-1.08l.65-.55c.46.48.92.95,1.37,1.43,3.03-4.13,6.91-6.24,11.86-6.39-5.64,4.08-6.84,10.29-10.62,15.31ZM1206.55,360.59l-6.72-.12c2.76-3.62,4.61-6.05,6.57-8.62.82.19,1.72.4,2.8.66-.9,2.75-1.72,5.27-2.65,8.09ZM1215.34,319.95c-1.71,1.84-3.41,3.68-4.88,5.26l-5.35-.11v2.82c-2.23.51-4.65,2.17-6.14-1.16-1.47-.97-2.95-1.94-4.99-3.29,1.59-1.59,2.8-2.8,4.22-4.22,6.2,2.44,10.59.56,17.15.7.18-2.67,2.54-1.46,4.09-1.7v-1.16c.91.27,1.41.65,1.86,1.05-.67.09-1.29.13-1.86.12-.17,2.67-2.54,1.47-4.09,1.7ZM1243.39,313.39l-2.96-.06c-.22-.91-.45-1.9-.75-3.15,1.32-.21,2.23-.35,3.7-.58v3.79ZM1263.95,241.06v2.96c-.33.03-.67.06-1,.1-.25-1-.49-2-.74-3,.58-.02,1.16-.04,1.74-.05ZM1254.65,246.07v-3.79s2.95.07,2.95.07c.22.91.45,1.9.74,3.15-1.32.2-2.23.34-3.7.56ZM1268.2,285.89c-1.43-1.12-2.17-1.71-2.91-2.29-.69.55-1.38,1.09-2.53,1.99-.21-1.34-.37-2.33-.56-3.59l6,.14v3.75ZM1261.33,263.32c2.43.92,4.86,1.85,7.78,2.96-4.38,2.73-6.65.72-7.78-2.96ZM1271.9,251.63l-2.95-.07c-.21-.91-.45-1.9-.74-3.15,1.32-.2,2.22-.34,3.69-.56v3.78ZM1276.82,260.35c-.05-.29-.09-.59-.14-.88,1.13-.19,2.26-.38,3.39-.57.04.51.07,1.02.11,1.53l-3.37-.08ZM1344.1,257.15c-.53-1.31-1.06-2.63-1.51-3.73,1.97-.73,2.74.47,1.51,3.73ZM1371.51,293.5v.89s-4.02-.09-4.02-.09v-.89s4.02.09,4.02.09ZM1389.22,234.73l-3.33-.09-.14-.88c1.12-.19,2.24-.37,3.35-.56.04.51.07,1.01.11,1.52ZM1373.68,216.02c1.07.65,2.3,1.4,3.91,2.38-1.27.17-2.15.29-3.91.53v-2.91ZM1357.42,242.23v-2.7s4.03.1,4.03.1c.8-1.44,1.6-2.87,2.59-4.67,1.45-.61,3.38-1.43,5.17-2.18,2.19.66,4.25,1.28,6.32,1.89-.4-.76-.8-1.51-1.24-2.35,2.17-2.15,3.44-2.8,7.45-3.48-.82-1.97-1.61-3.87-2.49-5.98,4.16-1.05,5.39.88,6.33,3.21.73.36,1.45.72,2.85,1.42-3.84,3.65-7.43,6.61-12.9,7.18-2.01,1.13-4.02,2.26-6.03,3.39-.6.91-1.21,1.82-2.3,3.47,2.34-.46,4.17-.81,5.99-1.16,2.02-1.19,4.17,4.22,6.32-.23l-.15.13c.06-.06.11-.12.17-.19-.72-.24-1.27-.67-1.81-1.09l.63-.54c.45.48.91.96,1.36,1.44,1.09-1.18,2.09-2.26,3.37-3.66,1.51.98,3.03,1.97,4.61,3-2.58,1.95-4.98,3.77-8.11,6.15-3.93-1.11-8.87-2.68-14.12-2.1-.97,1.16-1.94,2.32-3.24,3.88-.57-1.57-.92-2.55-1.44-4l-3.38-.08v3.12c-1.87.09-3.81.18-5.74.28-.14-.4-.28-.8-.42-1.2,1.91-.95,3.82-1.89,6.15-3.05ZM1348.29,235.48c.36.38.73.76,1.09,1.13-1.27,1.53-2.99,2.46-5.16,2.79-.37-.48-.74-.96-1.12-1.43,1.73-.83,3.45-1.66,5.18-2.49ZM1342.69,240.75c.26,1.08.49,2.06,1.21,5.07-2.54-2.24-3.56-3.13-5.13-4.51,1.7-.24,2.59-.37,3.92-.56ZM1320.75,333.13v2.95s-1,.1-1,.1c-.25-1-.49-1.99-.74-2.98.58-.02,1.15-.04,1.73-.06ZM1317.58,345.4v-3.77s2.93.06,2.93.06c.21.9.45,1.89.74,3.13-1.31.21-2.21.35-3.67.58ZM1326.65,312.68v6.55c-1.68-.64-2.71-1.03-4.52-1.72,1.63-1.74,2.77-2.96,4.52-4.82ZM1324.78,320.78v4.72c-.35.02-.7.04-1.06.05-.25-1.6-.49-3.19-.73-4.79l1.79.02ZM1323.54,356.05c-.21-.39-.43-.78-.64-1.18,1.37-.54,2.74-1.08,4.13-1.63.09.08,1,.9,2.51,2.25-2.35.22-4.17.38-6,.55ZM1332.71,341.92l-1.01-.02v-3.55s1.01.02,1.01.02v3.55ZM1330.46,254.25c-.65,1.37-1.17,2.47-1.68,3.57-2.33.51-4.67,1.02-6.93,1.51-1.57-.48-3.35-1.02-5.56-1.7-1.68,2.01-3.26,3.89-5.31,6.35-2.22-2.26-4.15-4.24-6.08-6.21v5.49c-2.44-1.55-4.26-2.7-6.08-3.86-.02,1.07-.11,2.13-.22,3.3-1.22.06-2.1.1-3.45.17-.14-1.08-.26-2.06-.42-3.36,1.66-.07,2.87-.13,4.17-.18.87-3.34,4-.93,6-1.56-1.51-1.34-3.03-2.69-5.4-4.8,7.33-.73,13.41-1.35,19.49-1.95,3.07,5.51,22.1-3.31,26.92-2.4-1.66,3.05-4.54,4.59-8.66,4.62.42,1.72.84,3.45,1.49,6.1-2.95-1.81-5.22-3.2-8.28-5.08ZM1344.98,397.03l-5.37-.09v-6.8s5.37.09,5.37.09v6.8ZM1383.08,360.58l.11,1.52-3.33-.06c-.05-.29-.09-.58-.14-.87,1.12-.19,2.24-.39,3.36-.58ZM1355.05,363.98v4.71c-.35.02-.7.04-1.05.06-.24-1.59-.49-3.19-.73-4.78.59,0,1.19,0,1.78.01ZM1354.79,374.04c.4-.95.82-1.95,2.06-4.91.3,4.05.46,6.2.63,8.46-3.14-.91-5.65-1.63-9.65-2.79,3.27-.36,5.05-.55,6.97-.76ZM1353.74,382.85c-.03-.31-.06-.62-.09-.93,1.78-.19,3.56-.38,5.33-.56.04.53.07,1.06.11,1.59l-5.35-.09ZM1375.85,381.22c-1.38.2-2.5.37-4.02.59v-5.42c-1.36,1.01-2.4,2.06-3.9,3.56-.63-.49-1.54-1.21-2.45-1.92-1.65.64-3.29,1.3-5.5,2.21-1.17-4.06,1.93-5.58,4.72-7.67.37,1.81.73,3.61,1.07,5.3,3.82-.13.19-3.89,2.77-5.06.67.06,1.54.14,2.97.27v3.28c1.41-.52,2.72-1.18,5.05-2.36.61,1.28,1.26,2.66,1.85,3.89-.89.14-2.87.44-5.15.79.96.94,1.6,1.56,2.6,2.54ZM1380.01,374.44c-.26-.29-.51-.57-.77-.86l3.6-.83c-.33-.32-.65-.63-.98-.95,2.45.63,4.91,1.26,7.36,1.9.01.3.02.6.04.91l-9.25-.17ZM1386.02,384.82c2.8-.84,4.27-1.28,4.94-1.48q.5,1.86-4.94,1.48ZM1392.75,371.15c1.79.76,3.02,1.3,3.94,1.73-1.71.7-3.04.18-3.94-1.73ZM1407.95,360.79c-.04-.29-.09-.58-.13-.87,1.12-.19,2.23-.39,3.35-.58l.11,1.52-3.32-.06ZM1408.17,343.47c-.07-.51-.15-1.02-.22-1.53l3.32.07.15.84c-1.09.21-2.17.42-3.26.62ZM1425.64,334.47l-4-.08v-.88s4,.08,4,.08v.88ZM1452.18,337.17c-.24-1.09-.48-2.19-.72-3.28,1.78.93,1.9,2.04,2.01,3.16-.43.04-.86.08-1.29.12ZM1482.22,327.27c-1.35-2.93-.56-5.72.52-8.56.69,2.02,1.37,4.05,2.18,6.44-.39.31-1.33,1.05-2.7,2.13ZM1508.89,275.31v2.92c-.31.04-.63.08-.94.11-.26-.96-.51-1.92-.77-2.88.57-.05,1.14-.1,1.71-.15ZM1509.91,287.05c-.66-2-1.33-4.06-2.06-6.26,1.7-.71,3.07-1.29,4.48-1.88.69,1.19,1.52,2.64,2.34,4.07-1.47,1.25-3.13,2.67-4.76,4.07ZM1541.01,280.43q-3.52,3.81-8.48,3c2.71-.96,5.07-1.79,8.48-3ZM1537.41,275.7v-3.51s.99.02.99.02v3.51s-.99-.02-.99-.02ZM1536.46,301.03c-1.25-2.22-2-3.54-3.09-5.46,2.03-1.53,3.21-4.67,7.5-3.98.44-.48.88-.95,1.32-1.43.22.49.43.98.65,1.47,1.03-.51,2.06-1.02,3.67-1.81.39,6.8-8.93,5.44-10.05,11.21ZM1556.99,265.32v-2.91c.32-.03.65-.06.97-.09.24.98.48,1.97.72,2.95-.56.02-1.13.04-1.69.06ZM1590.33,270.06c.99-1.54,2.23-1.62,3.47-1.68l.16,1.14c-1.21.18-2.42.36-3.63.55ZM1650.27,171.89l-.98-.03v-3.49s.98.03.98.03v3.49ZM1650.92,151.32c.99-.14,1.86-.26,3.17-.45.23,1.09.43,2.07.69,3.29-1.28.18-2.15.3-3.85.54v-3.39ZM1635.45,134.74c2.3,2.6,4.54,5.14,6.83,7.72,2.89-.84,5.13-1.48,7.3-2.11,2.05,1.7,1.59,3.31-1.84,6.94-.45-.42-.91-.84-1.54-1.43-1.13.48-2.33,1-3.77,1.62-1.36-1.92-2.63-3.72-4.01-5.68-.86.61-1.51,1.08-3.01,2.15.88-3.13-2.12-4.28-3.51-6.53,1.46-2.63,2.57-2.67,3.55-2.68ZM1632.53,121.55q-1.5,3.62-5.86,3.69c2.16-1.36,3.65-2.3,5.86-3.69ZM1616.63,128.28c.87,1.59,1.53,2.77,2.18,3.96-1.88.23-4.42,1.02-2.18-3.96ZM1609.39,111.51c.04.29.09.58.13.87-1.09.18-2.18.35-3.27.53-.04-.5-.07-1-.11-1.5l3.25.11ZM1600.81,129.09c-.87-1.59-1.53-2.78-2.18-3.96,1.88-.23,4.43-1.02,2.18,3.96ZM1574.37,157.83l3.93.12v.88s-3.93-.12-3.93-.12v-.88ZM1566.14,232.84c.05.28.1.56.15.84-1.07.2-2.14.4-3.2.6-.07-.51-.14-1.01-.21-1.52l3.27.08ZM1564,239.44c.07.51.14,1.01.21,1.52l-3.27-.08c-.05-.28-.1-.56-.15-.84,1.07-.2,2.14-.4,3.2-.6ZM1560.59,252.54c2.47-2.12,4.51-3.87,6.27-5.38-1.93-9.44,4.92-17.4.03-26.16.96-.38,2.25-.89,3.53-1.39v-2.06c-1.03-.34-2.17-.71-3.83-1.25,2.14-1.34,4.11-2.57,6.38-3.99-.82-1.26-1.43-2.21-2.2-3.39,4.13-.83,4.64-4.43,6.67-8.15,1.13,1.73,2.08,3.18,2.44,3.73,7.9,1.84,11.42-2.81,16.08-5.02v-3.8c2.13-.88,4.27-1.77,6.4-2.66.93.75,1.65,1.33,2.55,2.05,3.08-3.36,7.87-5.43,9.41-9.87,2.76-.31,5.45-.61,9.48-1.06,4.08,1.91,9.66,9.34,12.98,12.4,1.37-.87,2.35-1.49,4.18-2.65-.49,1.98-.83,3.35-1.29,5.2.07.08.65.69,1.25,1.33-.58.56-1.2,1.16-2.02,1.94,2.03,1.27,4.02,2.52,6.66,4.17-3.28,2.36-3.89,9.32-7.47,10.16-1.1-.66-2.12-1.27-3.96-2.37-13.34,13.28-34.44,22.67-45.99,36.33,1.18.05,2.35.16,3.65.28.1,1.05.17,1.82.28,2.99-1.19.09-2.26.16-3.7.27-.12-1.43-.22-2.48-.31-3.61-1.2.81-2.48,1.54-3.75,2.27v6.33c-2.92,2.5-5.39,4.62-8.05,6.9-2.3-1.11-4.98-2.4-7.47-3.6-2.19.55-4.2,1.06-6.21,1.57-.2.27-.38.48-.52.65.94,1.59.42,2.79-1.75,3.54.46-1.29.81-2.38,1.11-3.37.05-.23.14-.53.24-.84,0,0,0,0,0,.01.96-3.36,1.01-5.02.82-6.66-.09-.75-1.22-1.44-1.88-2.15-.42,1.67-1.81,2.44-3.66,3.45-.09-1.17-.16-2.12-.25-3.35,1.58-.06,2.73-.11,3.89-.16.33.32.66.64,1,.96-.98-2.06-.98-3.23-.98-3.56ZM1555.6,229.27c-.95-1.39-1.71-2.49-2.62-3.81,2.51-.33,4.86-.81,2.62,3.81ZM1559.4,233.37c-4.31,1.27-6.85.72-8.89-3.45,3.24,1.26,5.62,2.18,8.89,3.45ZM1551.51,239.38c-.52-1.3-1.04-2.6-1.46-3.65,2.08-.95,2.54.56,1.46,3.65ZM1551.9,256.23c-.97-.56-2.19-1.27-4.16-2.42q4.78-.22,4.16,2.42ZM1546.66,260.31c3.06.06,1.81,2.04,2.1,3.37,2.15.4,4.03,1.27,6.26,2.31-1.22,1.15-2.02,1.9-3.26,3.08-1.1-1.88-2.11-3.61-3.69-6.31.04,1.64-.57,2.4-1.3,3.04-.57.5-1.3.87-1.96,1.3-.16,2.5-2.23,1.55-3.72,1.65.07-2.53,2.26-1.43,3.72-1.65-.23-2.47.11-4.8,1.84-6.79ZM1544.46,224.66l-3.27-.09c-.04-.29-.09-.58-.13-.87,1.1-.18,2.2-.37,3.3-.55l.11,1.51ZM1542.32,216.06c.07.51.14,1.01.21,1.52l-3.27-.09c-.05-.28-.1-.56-.15-.84,1.07-.2,2.14-.4,3.21-.6ZM1538.58,242.66l.13.87c-1.1.19-2.2.37-3.3.56-.04-.5-.07-1-.11-1.51l3.28.08ZM1534.61,246.05v2.91c-.31.04-.63.07-.94.11-.26-.96-.51-1.92-.77-2.88.57-.05,1.14-.1,1.71-.15ZM1534.74,269.75c-1.07.2-2.14.4-3.22.61-.07-.51-.14-1.01-.21-1.52l3.28.08c.05.28.1.56.15.84ZM1528.8,229.92c.05.38.11.76.16,1.14-1.06.16-2.12.31-3.18.47,1.39-1.51,2.21-1.57,3.01-1.61ZM1525.4,223.03c.33-.02.67-.04,1-.07.25,1.54.5,3.08.75,4.63-.58.04-1.17.07-1.75.11v-4.67ZM1522.59,240.2l-.99-.03v-3.52s.99.03.99.03v3.52ZM1522.75,235.76c.81-1.32,1.5-2.31,2.1-3.1.53,1.35-.14,2.39-2.1,3.1ZM1527.48,240.8v-7.22s5.35.14,5.35.14c-1.78,2.36-3.35,4.44-5.35,7.08ZM1530.93,277.77c.57-.05,1.14-.1,1.71-.15v2.91s-.94.11-.94.11c-.26-.96-.51-1.92-.77-2.88ZM1519.49,313.66c-.05-.28-.1-.56-.15-.84,1.07-.2,2.15-.41,3.22-.61.07.51.14,1.02.21,1.52l-3.28-.07ZM1553.04,358.27v-2.91c.31-.04.63-.08.94-.12.25.96.51,1.91.77,2.87-.57.05-1.14.11-1.7.16ZM1578.64,360.46v-2.91c.32-.03.65-.07.97-.1.24.98.48,1.96.72,2.94-.56.02-1.12.04-1.68.07ZM1746.92,272.85c-.65-1.63-.95-2.38-1.52-3.78,6.72-.42,7.51-6.35,11.35-9.42-.6-2.27-1.06-4.05-1.49-5.68,2.04-.89,3.61-1.57,5.3-2.3,10.92,7-9.34,18.27-13.65,21.19ZM1807.7,207.35v-2.87s.94-.09.94-.09c.23.97.46,1.94.7,2.91-.55.02-1.1.03-1.64.05ZM1810.07,239.09c5.32-.31,6.41,1.66,7.54,5.83-2.95-2.28-4.72-3.65-7.54-5.83ZM1851.93,228.06c-.24-1.05-.46-2.01-1.14-4.93,2.4,2.18,3.36,3.05,4.85,4.39-1.61.23-2.45.36-3.71.54ZM1859.56,228.26c-.24-1.05-.46-2.01-1.14-4.93,2.4,2.17,3.36,3.05,4.84,4.39-1.61.23-2.45.36-3.7.54ZM1880.39,251.04l.95.02v3.45s-.95-.02-.95-.02v-3.45ZM1879.82,262.72c1.86-1.85,3.43-3.41,4.7-4.68,4.56.05,2.43,2.76,3.22,4.88l-7.92-.2ZM1898.58,262.15v2.86c-.31.03-.62.06-.93.09-.23-.96-.46-1.93-.69-2.89.54-.02,1.08-.04,1.63-.06ZM1898.59,292.31c-1.76-3.29-2.8-5.23-4.09-7.63,1.59-.23,2.65-.39,4.09-.6v8.23ZM2029.36,256.59c-.07-.49-.14-.99-.2-1.48l3.1.08.14.82c-1.01.2-2.03.39-3.04.59ZM2028.88,241.29l3.33.09c.18.87.34,1.64.53,2.53-2.48,1.26-4.02,1.19-3.86-2.62ZM2112.94,251.55c-.05-.27-.1-.54-.14-.81,1-.19,2.01-.39,3.01-.58.07.49.13.98.2,1.47l-3.07-.08ZM2164.3,215.43l-3.68-.1v-.85s3.68.1,3.68.1v.85ZM2179.5,258.87c-.26-1.21-.43-1.97-.7-3.2l5.74.15c.08.68.16,1.35.25,2.03-1.67.32-3.34.65-5.28,1.03ZM2254.4,170.83l-.14-.81c.99-.19,1.98-.38,2.96-.56.07.49.13.98.2,1.46l-3.02-.09ZM2314.77,132.55c.92.2,1.92.41,5.16,1.1-3.46,2.27-5.03,3.3-8.23,5.41,1.55-3.27,2.24-4.73,3.08-6.51ZM2311.88,157.47l-.89.09c-.22-.94-.44-1.89-.66-2.83.52-.02,1.03-.03,1.55-.04v2.79ZM2362.73,149.76c.91-.15,1.91-.31,3.16-.51.24,1.1.4,1.85.66,3.06l-3.82-.12v-2.43ZM2367.28,181.31c-.89-.85-1.52-1.46-2.43-2.34v-11.34c5.54.86,5.27,5.23,7.54,8.43-1.84,1.89-3.47,3.56-5.11,5.25ZM2404.75,185.62c-.78-3.63-1.56-7.23-2.49-11.54l4.17.13c1.19,1.33,2.48,2.78,4.24,4.75-1.61,1.81-3.75,4.23-5.92,6.67ZM2459.38,186.94l-7.06-.21-.27-.98c2.13-.74,4.27-1.48,7.33-2.55v3.74ZM2527.69,177.84c-1.07-1.04-1.89-1.83-3.44-3.34l7.39.23c.19.79.36,1.53.67,2.84-1.75.1-3.3.2-4.62.27ZM2594.41,146.91c-.35-.79-.65-1.48-1.2-2.74,2.95-.5,5.65-.95,8.88-1.5.08.41.18.91.36,1.79-2.56.78-5.2,1.58-8.03,2.44ZM2606.98,136.99q-6.76-2-11.45-.58v-2.57s12.09.4,12.09.4c.07-.04.13-.06.2-.1.18,1.64-.09,2.36-.84,2.85ZM2609.11,133.53c1.78-.66,3.57-.62,5.35-.57,0,.25,0,.5.01.74l-5.37-.18Z"/>
      <path class="cls-1" d="M1118.68,341.36c-.04-.07-.09-.13-.13-.2.04,0,.08-.01.12-.02,0,.07,0,.14.01.22Z"/>
      <path class="cls-1" d="M981.28,204.68c-.27.65-.75,1.13-1.24,1.61l-.66-.59,1.71-1.22.2.18h-.01Z"/>
      <path class="cls-1" d="M981.47,210.25s-.1.01-.15.02c0-.05,0-.11,0-.16.05.05.1.09.16.14Z"/>
      <path class="cls-1" d="M981.02,209.97c-.25,1.03-.61,1.39-.98,1.75l-.66-.59c.55-.39,1.1-.78,1.64-1.17Z"/>
      <path class="cls-1" d="M979.2,200.99s0,0-.02.01c-.27.65-.75,1.13-1.24,1.61-.22-.2-.44-.39-.66-.59.57-.41,1.14-.81,1.71-1.22l.2.18Z"/>
      <path class="cls-1" d="M980.04,220.77l-.66-.59c.57-.41,1.14-.81,1.71-1.22l.18.16c-.67,1.07-.96,1.37-1.23,1.65Z"/>
      <path class="cls-1" d="M982.26,219.19c-.16-.19-.2-.34-.32-.52.95-1.38.63-.43.32.52Z"/>
      <path class="cls-1" d="M1029.21,180.49l.29.26c-.06,0-.12,0-.18,0-.18.58-.67,1.06-1.15,1.53l-.66-.59c.57-.4,1.14-.81,1.71-1.21Z"/>
      <path class="cls-1" d="M974.8,289.42l.22.19h-.03c-.27.65-.76,1.13-1.24,1.62l-.66-.59c.57-.41,1.14-.82,1.72-1.22Z"/>
      <path class="cls-1" d="M1047.97,392.03c.07.06.14.13.22.19,0,0-.02,0-.03,0-.27.65-.75,1.13-1.23,1.62l-.66-.58,1.7-1.23Z"/>
      <path class="cls-1" d="M1035.84,388.38c-.06,0-.12,0-.18,0l.16-.13s.02.08.03.13Z"/>
      <path class="cls-1" d="M1037.55,389.51c-.22.19-.44.37-.66.56l-1.39-1.44c1.2.23,1.62.56,2.05.88Z"/>
      <path class="cls-1" d="M1007.27,409.45c-.22-.19-.44-.39-.66-.58l.65-.47c.74.27.4.66.01,1.05Z"/>
      <path class="cls-1" d="M1024.38,404.3c-.49-.5-.97-1-1.46-1.5.11-.1.22-.19.34-.29.03.04.05.08.08.13.56.24,1.13.67,1.7,1.1l-.66.56Z"/>
      <path class="cls-1" d="M1048.13,397.63h.03c.27-.65.75-1.13,1.23-1.62.22.19.44.39.66.58l-1.7,1.23-.22-.19Z"/>
      <path class="cls-1" d="M1056.68,394.36c-.12-.11-.25-.22-.37-.33.09-.01.18-.03.27-.04.18-.47.66-.95,1.15-1.44.22.19.44.39.66.58-.57.41-1.13.82-1.7,1.23Z"/>
      <path class="cls-1" d="M1068.87,379.9s.05,0,.08,0l.24.23s-.03.02-.04.03l-.28-.25Z"/>
      <path class="cls-1" d="M1069.64,379.8c-.12-.75.21-1.11.56-1.46l.65.58c-.4.29-.81.58-1.21.88Z"/>
      <path class="cls-1" d="M1078.12,378.15l-.66-.58,1.7-1.23c.07.06.14.13.21.19-.01,0-.02,0-.03,0-.26.65-.75,1.13-1.23,1.61Z"/>
      <path class="cls-1" d="M1087.83,378.68c-.07-.06-.15-.13-.22-.19h.07c.23-.65.71-1.13,1.19-1.61.22.19.44.39.65.58-.56.41-1.13.82-1.69,1.23Z"/>
      <path class="cls-1" d="M1222.68,319.94c-.47-.5-.95-.99-1.42-1.49l.2-.17s.01,0,.02.01c.74.24,1.3.67,1.85,1.1-.21.18-.43.37-.64.55Z"/>
      <path class="cls-1" d="M1320.27,249.42l.64.58c-.55.4-1.1.8-1.65,1.2l-.21-.19s.02,0,.03,0c.26-.64.73-1.11,1.2-1.58Z"/>
      <path class="cls-1" d="M1397.61,372.46c-.2.13-.38.16-.57.26-1.56-.83-.5-.54.57-.26Z"/>
      <path class="cls-1" d="M1398.8,374.91c-.47-.49-.93-.98-1.4-1.47l.17-.15c1.21.59,1.55.84,1.86,1.07-.21.18-.42.37-.63.55Z"/>
      <path class="cls-1" d="M1451.42,333.7c.06,0,.12,0,.18,0-.05.04-.1.09-.15.13l-.03-.12Z"/>
      <path class="cls-1" d="M1450.42,332.05c.44.47.89.94,1.33,1.41-1.14-.23-1.55-.55-1.96-.87l.63-.54Z"/>
      <path class="cls-1" d="M1588.31,270.93c.51-.38,1.02-.76,1.54-1.13-.23,1-.58,1.35-.92,1.7-.21-.19-.41-.38-.62-.57Z"/>
      <path class="cls-1" d="M1590.12,269.94l.15.13-.14.02v-.16Z"/>
      <path class="cls-1" d="M1630.84,138.1c-.23,1.01-.5,1.31-.77,1.58l-.62-.57c.46-.34.92-.68,1.38-1.01Z"/>
      <path class="cls-1" d="M1545.62,258.5c.46.49.92.98,1.37,1.47-.08.07-.17.15-.25.22.02-.02.03-.04.05-.06-.72-.24-1.25-.66-1.79-1.08.21-.18.41-.36.62-.54Z"/>
      <path class="cls-1" d="M1540.69,268.57l.2.19s-.02,0-.03,0c-.25.63-.71,1.1-1.17,1.57l-.62-.57,1.61-1.19Z"/>
      <path class="cls-1" d="M1524.14,231.45c.07.09.08.16.14.24-.66,1.38-.41.59-.14-.24Z"/>
      <path class="cls-1" d="M2607.61,132.74c.06.29.07.49.11.75h-.1c0-.25,0-.5-.01-.75Z"/>
      <path class="cls-1" d="M833.11,313.64l.18.16c-.68,1.09-.97,1.39-1.25,1.66l-.67-.59c.58-.41,1.16-.82,1.74-1.24Z"/>
      <path class="cls-1" d="M827.14,302.6c-.1.08-.19.16-.29.24,0-.02,0-.05,0-.07.09-.07.17-.14.26-.21.01.01.02.02.03.03Z"/>
      <path class="cls-1" d="M825.65,301.08c.35.36.71.73,1.06,1.09-.88.09-1.32-.21-1.74-.53l.67-.56Z"/>
      <path class="cls-1" d="M833.98,313.34c.96-1.4.64-.44.32.52-.16-.19-.2-.35-.32-.52Z"/>
      <path class="cls-1" d="M849.47,330.41c-.49-.51-.99-1.01-1.48-1.52l.22-.18s0,.01,0,.02c.77.25,1.35.68,1.93,1.12l-.67.56Z"/>
      <path class="cls-1" d="M1029.59,407.97c-.14.12-.27.23-.41.35.48.5.97,1,1.45,1.5l.66-.56c-.57-.43-1.14-.86-2.08-.91.14-.12.27-.23.41-.35-.48-.5-.97-1-1.45-1.5l-.66.56c.57.43,1.14.86,2.08.91Z"/>
      <path class="cls-1" d="M1621.63,127.16c-.13.11-.25.22-.38.33.45.49.91.98,1.36,1.47.21-.18.41-.35.62-.53-.53-.42-1.07-.85-1.95-.91.13-.11.25-.22.38-.33-.45-.49-.91-.98-1.36-1.47-.21.18-.41.35-.62.53.53.42,1.07.85,1.95.91Z"/>
      <path class="cls-1" d="M1004.55,205.46c-.14-.12-.27-.24-.41-.36-.57.4-1.14.81-1.71,1.21l.66.59c.49-.48.97-.96,1.02-1.78.14.12.27.24.41.36.57-.4,1.14-.81,1.71-1.21-.22-.2-.44-.39-.66-.59-.49.48-.97.96-1.02,1.78Z"/>
      <path class="cls-1" d="M1070.82,387.04c.14.12.27.24.41.36.57-.41,1.13-.82,1.7-1.23-.22-.19-.44-.39-.65-.58-.48.48-.97.96-1.01,1.78-.14-.12-.27-.24-.41-.36-.57.41-1.13.82-1.7,1.23l.66.58c.48-.48.97-.96,1.01-1.78Z"/>
      <path class="cls-1" d="M1558.83,237.77c-.13-.12-.26-.23-.38-.35-.54.39-1.07.79-1.61,1.18l.62.57c.46-.47.92-.93.96-1.73.13.12.26.24.39.35.54-.39,1.07-.79,1.61-1.18-.21-.19-.41-.38-.62-.57-.46.47-.92.93-.96,1.73Z"/>
      <path class="cls-1" d="M1379.34,367.48l.39.35c.55-.4,1.09-.8,1.64-1.2l-.63-.57c-.47.47-.93.95-.98,1.75-.13-.12-.26-.24-.39-.35-.55.4-1.09.8-1.64,1.2l.63.57c.47-.47.93-.95.98-1.75Z"/>
      <path class="cls-1" d="M762.51,330.52c.14.12.28.24.42.37.58-.41,1.17-.83,1.75-1.24-.23-.2-.45-.39-.68-.59-.5.49-1,.98-1.05,1.81-.14-.12-.28-.24-.42-.37-.58.41-1.17.83-1.75,1.24.23.2.45.39.68.59.5-.49,1-.98,1.05-1.81Z"/>
      <path class="cls-1" d="M1533.15,340.42c-.13.11-.26.22-.39.34.46.49.92.98,1.38,1.46l.62-.54c-.54-.42-1.08-.84-1.97-.9.13-.11.26-.22.39-.34-.46-.49-.92-.98-1.38-1.46-.21.18-.42.36-.62.54.54.42,1.08.84,1.97.9Z"/>
      <path class="cls-1" d="M852.69,294.36c-.14-.12-.28-.24-.42-.36-.58.41-1.16.82-1.74,1.23l.67.59c.49-.49.99-.97,1.04-1.8.14.12.28.24.42.37.58-.41,1.16-.82,1.74-1.23l-.67-.59c-.49.49-.99.97-1.04,1.8Z"/>
      <path class="cls-1" d="M756.07,319.41c.14.12.28.24.42.37.59-.41,1.17-.83,1.75-1.24-.23-.2-.45-.39-.68-.59-.5.49-1,.98-1.05,1.81-.14-.12-.28-.24-.42-.37-.59.41-1.17.83-1.76,1.24.23.2.45.39.68.59.5-.49,1-.98,1.05-1.81Z"/>
      <path class="cls-1" d="M930.11,315.84h-.7c0,.59,0,1.2,0,1.8h.7c0-.59,0-1.2,0-1.8Z"/>
      <path class="cls-1" d="M1532.97,328.88v.59c.66.01,1.32.03,1.98.04v-.59c-.66-.01-1.32-.03-1.98-.04Z"/>
      <path class="cls-1" d="M762.02,314.2c-.24,0-.48,0-.72-.01,0,.61,0,1.22,0,1.83h.72c0-.6,0-1.21,0-1.82Z"/>
      <path class="cls-1" d="M924.48,318.75v-.61c-.7-.01-1.41-.03-2.11-.04v.61c.7.01,1.41.03,2.11.04Z"/>
      <path class="cls-1" d="M1527.04,332.86v-.59c-.66-.01-1.32-.03-1.98-.04v.59c.66.01,1.32.03,1.98.04Z"/>
      <path class="cls-1" d="M926.59,309.72v-.6c-.7-.01-1.41-.03-2.11-.04v.61c.7.01,1.41.03,2.11.04Z"/>
      <path class="cls-1" d="M866.63,307.25c-.24,0-.47,0-.71-.01,0,.61,0,1.21,0,1.82.24,0,.47,0,.71.01v-1.82Z"/>
      <path class="cls-1" d="M841.12,306.71c-.24,0-.47,0-.71-.01v1.82c.24,0,.47,0,.71.01,0-.61,0-1.22,0-1.82Z"/>
      <path class="cls-1" d="M1438.3,333.41h.67c0-.58,0-1.16,0-1.75h-.67c0,.58,0,1.16,0,1.75Z"/>
      <path class="cls-1" d="M1224.2,314.77c.23,0,.45,0,.68.01v-1.79c-.23,0-.45,0-.68-.01v1.79Z"/>
      <path class="cls-1" d="M1190.07,310.47h-.68c0,.58,0,1.18,0,1.78h.68c0-.58,0-1.18,0-1.78Z"/>
      <path class="cls-1" d="M865.92,323.62h.71c0-.59,0-1.2,0-1.81h-.71c0,.59,0,1.2,0,1.81Z"/>
      <path class="cls-1" d="M1331.2,331.83v.59c.67.01,1.35.03,2.02.04v-.59c-.67-.01-1.35-.03-2.02-.04Z"/>
      <path class="cls-1" d="M1475.49,313.6v.59c.66.01,1.33.03,1.99.04v-.59c-.66-.01-1.33-.03-1.99-.04Z"/>
      <path class="cls-1" d="M871.58,298.85v.61c.71.02,1.41.03,2.12.05v-.61c-.71-.02-1.41-.03-2.12-.05Z"/>
      <path class="cls-1" d="M860.96,299.23v-.61c-.71-.02-1.42-.03-2.12-.05v.61c.71.02,1.42.03,2.12.05Z"/>
      <path class="cls-1" d="M1638.39,339.21c-.22,0-.43,0-.65-.01v1.75c.22,0,.43,0,.65.01v-1.75Z"/>
      <path class="cls-1" d="M826.91,325.27v.61c.71.01,1.42.03,2.13.04v-.61c-.71-.01-1.42-.03-2.13-.04Z"/>
      <path class="cls-1" d="M860.26,325.33h-.71c0,.59,0,1.2,0,1.81h.71c0-.59,0-1.2,0-1.81Z"/>
      <path class="cls-1" d="M863.8,327.22h.71c0-.59,0-1.2,0-1.81h-.71c0,.59,0,1.2,0,1.81Z"/>
      <path class="cls-1" d="M1678.02,310.96v.58c.65.01,1.3.03,1.94.04v-.58c-.65-.01-1.3-.03-1.94-.04Z"/>
      <path class="cls-1" d="M1198.96,332.73v.6c.68.01,1.37.03,2.05.04v-.6c-.68-.01-1.37-.03-2.05-.04Z"/>
      <path class="cls-1" d="M1449.6,338.34v-.59c-.66-.01-1.33-.03-1.99-.04v.59c.66.01,1.33.03,1.99.04Z"/>
      <path class="cls-1" d="M1526.38,307.07c-.22,0-.44,0-.66-.01v1.76c.22,0,.44,0,.66.01v-1.76Z"/>
      <path class="cls-1" d="M1544.16,340.82c-.22,0-.44,0-.66-.01v1.76c.22,0,.44,0,.66.01,0-.59,0-1.17,0-1.76Z"/>
      <path class="cls-1" d="M1453.59,304.31v.59c.66.01,1.33.03,1.99.04v-.59c-.66-.01-1.33-.03-1.99-.04Z"/>
      <path class="cls-1" d="M865.92,292.66c.24,0,.47.01.71.02v-1.82c-.24,0-.47-.01-.71-.02v1.82Z"/>
      <path class="cls-1" d="M1202.37,335.78h-.68c0,.58,0,1.18,0,1.78h.68c0-.58,0-1.18,0-1.78Z"/>
      <path class="cls-1" d="M848.92,290.47c.24,0,.47.01.71.02v-1.82c-.24,0-.47-.01-.71-.02,0,.61,0,1.22,0,1.82Z"/>
      <path class="cls-1" d="M1337.25,339.64v-.59c-.67-.01-1.35-.03-2.02-.04v.59c.67.01,1.35.03,2.02.04Z"/>
      <path class="cls-1" d="M1445.61,341.79v-.59c-.66-.01-1.33-.03-2-.04v.59c.67.01,1.33.03,2,.04Z"/>
      <path class="cls-1" d="M1529.68,344.04h.66c0-.57,0-1.16,0-1.74-.22,0-.44,0-.66-.01,0,.59,0,1.17,0,1.76Z"/>
      <path class="cls-1" d="M1186.66,337.85v.6c.68.01,1.37.03,2.05.04v-.6c-.68-.01-1.37-.03-2.05-.04Z"/>
      <path class="cls-1" d="M2360.33,113.98l-.6-.02c0,.56,0,1.12,0,1.68l.6.02c0-.56,0-1.12,0-1.68Z"/>
      <path class="cls-1" d="M717.55,280.86v.61c.72.02,1.44.03,2.16.05v-.61c-.72-.02-1.44-.03-2.16-.05Z"/>
      <path class="cls-1" d="M971.49,284.1c.23,0,.47.01.7.02v-1.81c-.23,0-.47-.01-.7-.02v1.81Z"/>
      <path class="cls-1" d="M1214.65,339.6c-.23,0-.45,0-.68-.01v1.79c.23,0,.45,0,.68.01,0-.6,0-1.19,0-1.79Z"/>
      <path class="cls-1" d="M1327.83,343.6h.67c0-.58,0-1.17,0-1.76h-.67c0,.58,0,1.17,0,1.76Z"/>
      <path class="cls-1" d="M2362.13,119.08l-.6-.02v1.68c.2,0,.4.01.6.02v-1.68Z"/>
      <path class="cls-1" d="M2286.81,126.08v-.56c-.61-.02-1.21-.04-1.82-.06v.56c.61.02,1.21.04,1.82.06Z"/>
      <path class="cls-1" d="M1538.9,278.08v.59c.66.02,1.32.03,1.97.05v-.59c-.66-.02-1.32-.03-1.97-.05Z"/>
      <path class="cls-1" d="M1520.45,275.3l-.66-.02v1.76c.22,0,.44.01.66.02v-1.76Z"/>
      <path class="cls-1" d="M1146.22,350.81c.23,0,.46,0,.69.01,0-.6,0-1.2,0-1.79h-.69c0,.58,0,1.18,0,1.78Z"/>
      <path class="cls-1" d="M1542.84,271.15v.59c.66.02,1.32.03,1.97.05v-.59c-.66-.02-1.32-.03-1.97-.05Z"/>
      <path class="cls-1" d="M1517.81,271.72c.22,0,.44.01.66.02v-1.76c-.22,0-.44-.01-.66-.02v1.76Z"/>
      <path class="cls-1" d="M938.54,348.67h-.7c0,.59,0,1.2,0,1.8.23,0,.47,0,.7.01,0-.6,0-1.21,0-1.81Z"/>
      <path class="cls-1" d="M1330.52,357.86h-.67c0,.58,0,1.17,0,1.76h.67c0-.58,0-1.17,0-1.76Z"/>
      <path class="cls-1" d="M1422.31,361.36c.22,0,.44,0,.67.01,0-.59,0-1.18,0-1.77h-.67c0,.58,0,1.17,0,1.75Z"/>
      <path class="cls-1" d="M1848.8,274.41l-.64-.02c0,.58,0,1.15,0,1.73l.64.02v-1.73Z"/>
      <path class="cls-1" d="M1153.08,356.32h-.69c0,.58,0,1.18,0,1.78h.69c0-.58,0-1.18,0-1.78Z"/>
      <path class="cls-1" d="M1557.96,267.41l-.66-.02v1.75c.22,0,.44.01.66.02v-1.75Z"/>
      <path class="cls-1" d="M1292.06,261.02l-.68-.02v1.78c.23,0,.45.01.68.02v-1.78Z"/>
      <path class="cls-1" d="M938.54,252.52l-.7-.02c0,.6,0,1.21,0,1.81.23,0,.47.01.7.02,0-.6,0-1.21,0-1.81Z"/>
      <path class="cls-1" d="M1376.2,364.04c.22,0,.45,0,.67.01v-1.77c-.22,0-.45,0-.67-.01,0,.59,0,1.18,0,1.77Z"/>
      <path class="cls-1" d="M1553.36,262.04l.66.02v-1.75c-.22,0-.44-.01-.66-.02,0,.58,0,1.17,0,1.75Z"/>
      <path class="cls-1" d="M1533.63,261.56l.66.02c0-.59,0-1.17,0-1.76-.22,0-.44-.01-.66-.02,0,.59,0,1.17,0,1.76Z"/>
      <path class="cls-1" d="M974.29,246.14c-.23,0-.47-.01-.7-.02v1.81c.23,0,.47.01.7.02v-1.81Z"/>
      <path class="cls-1" d="M953.98,245.04v-.6c-.7-.02-1.4-.03-2.1-.05v.6c.7.02,1.4.03,2.1.05Z"/>
      <path class="cls-1" d="M1416.31,371.86h.67c0-.58,0-1.17,0-1.76h-.67c0,.58,0,1.17,0,1.76Z"/>
      <path class="cls-1" d="M2588.35,142.14v.55c.58.02,1.17.04,1.75.06v-.55c-.58-.02-1.17-.04-1.75-.06Z"/>
      <path class="cls-1" d="M915.33,362.76c-.23,0-.47,0-.7-.01v1.82c.23,0,.47,0,.7.01,0-.61,0-1.21,0-1.82Z"/>
      <path class="cls-1" d="M972.89,241.28v.6c.7.02,1.4.03,2.1.05v-.6c-.7-.02-1.4-.03-2.1-.05Z"/>
      <path class="cls-1" d="M1594.67,112.48l.65.02c0-.58,0-1.17,0-1.75l-.65-.02c0,.58,0,1.17,0,1.75Z"/>
      <path class="cls-1" d="M1747.11,254.6l-.64-.02v1.74c.21,0,.43.01.64.02v-1.74Z"/>
      <path class="cls-1" d="M1815.03,253.42v.58c.64.02,1.28.03,1.91.05v-.58c-.64-.02-1.28-.03-1.91-.05Z"/>
      <path class="cls-1" d="M1625.36,114.64v-.58c-.65-.02-1.3-.04-1.96-.06v.58c.65.02,1.3.04,1.96.06Z"/>
      <path class="cls-1" d="M1556.65,246.91v.58c.66.02,1.31.03,1.97.05v-.58c-.66-.02-1.31-.03-1.97-.05Z"/>
      <path class="cls-1" d="M1548.76,247.3v-.58c-.66-.02-1.32-.03-1.97-.05v.58c.66.02,1.32.03,1.97.05Z"/>
      <path class="cls-1" d="M2182.08,260.4l-.61-.02v1.69c.2,0,.41.01.61.02,0-.56,0-1.13,0-1.69Z"/>
      <path class="cls-1" d="M1561.9,244.71l-.66-.02v1.75c.22,0,.44.01.66.02,0-.58,0-1.17,0-1.75Z"/>
      <path class="cls-1" d="M1392.93,374.97h-.67c0,.58,0,1.17,0,1.76h.67c0-.58,0-1.17,0-1.76Z"/>
      <path class="cls-1" d="M1550.74,245.01v.58c.66.02,1.31.03,1.97.05v-.58c-.66-.02-1.31-.03-1.97-.05Z"/>
      <path class="cls-1" d="M978.49,228.14l-.7-.02v1.81c.23,0,.47.01.7.02,0-.6,0-1.21,0-1.81Z"/>
      <path class="cls-1" d="M1411.64,378.26v-.59c-.67-.01-1.33-.02-2-.04v.59c.67.01,1.34.02,2,.04Z"/>
      <path class="cls-1" d="M1091.79,373.76v.6c.69.01,1.38.02,2.07.04v-.6c-.69-.01-1.38-.02-2.07-.04Z"/>
      <path class="cls-1" d="M1384.9,378.37c-.22,0-.45,0-.67-.01v1.77c.22,0,.45,0,.67.01v-1.77Z"/>
      <path class="cls-1" d="M1534.29,236.98c-.22,0-.44-.01-.66-.02v1.76c.22,0,.44.01.66.02v-1.76Z"/>
      <path class="cls-1" d="M1102.84,376.95h.69c0-.59,0-1.19,0-1.79h-.69c0,.59,0,1.19,0,1.79Z"/>
      <path class="cls-1" d="M1108.36,375.85v.6c.69.01,1.38.02,2.07.04v-.6c-.69-.01-1.38-.02-2.07-.04Z"/>
      <path class="cls-1" d="M961.69,220.47l-.7-.02v1.81c.23,0,.47.01.7.02v-1.81Z"/>
      <path class="cls-1" d="M1614.27,235.54c.22,0,.44.01.65.02v-1.75c-.22,0-.44-.01-.65-.02,0,.58,0,1.17,0,1.75Z"/>
      <path class="cls-1" d="M992.46,217.64c.23,0,.47.01.7.02v-1.81c-.23,0-.47-.01-.7-.02,0,.6,0,1.21,0,1.81Z"/>
      <path class="cls-1" d="M1912.81,133.18l.63.02c0-.57,0-1.15,0-1.72l-.63-.02c0,.57,0,1.15,0,1.72Z"/>
      <path class="cls-1" d="M1536.92,227.1v.59c.66.02,1.32.03,1.97.05v-.59c-.66-.02-1.32-.03-1.97-.05Z"/>
      <path class="cls-1" d="M1532.97,226.99v.59c.66.02,1.32.03,1.98.05v-.59c-.66-.02-1.32-.03-1.98-.05Z"/>
      <path class="cls-1" d="M1827.79,230.69l-.64-.02v1.73c.21,0,.42.01.64.02v-1.73Z"/>
      <path class="cls-1" d="M1530.99,223.43v.59c.66.02,1.32.03,1.98.05v-.59c-.66-.02-1.32-.03-1.98-.05Z"/>
      <path class="cls-1" d="M1378.88,385.35c-.22,0-.45,0-.67-.01v1.77c.22,0,.45,0,.67.01,0-.59,0-1.18,0-1.77Z"/>
      <path class="cls-1" d="M1041.91,381.9v.6c.69.01,1.39.02,2.08.04v-.6c-.69-.01-1.39-.02-2.08-.04Z"/>
      <path class="cls-1" d="M1073.12,382.44v.6c.69.01,1.38.02,2.08.04v-.6c-.69-.01-1.38-.02-2.08-.04Z"/>
      <path class="cls-1" d="M1002.23,210.06v-.6c-.7-.02-1.4-.04-2.09-.06v.6c.7.02,1.4.04,2.09.06Z"/>
      <path class="cls-1" d="M2354.93,145.67l-.6-.02c0,.56,0,1.12,0,1.68l.6.02c0-.56,0-1.12,0-1.68Z"/>
      <path class="cls-1" d="M1048.16,385.61v.6c.69.01,1.39.02,2.08.04v-.6c-.69-.01-1.39-.02-2.08-.04Z"/>
      <path class="cls-1" d="M1087.65,386.89v-.6c-.69-.01-1.38-.02-2.07-.04v.6c.69.01,1.38.02,2.07.04Z"/>
      <path class="cls-1" d="M1018.96,387.52v-.6c-.7-.01-1.39-.02-2.09-.04v.6c.7.01,1.39.02,2.09.04Z"/>
      <path class="cls-1" d="M1369.49,392.87v.59c.67.01,1.34.02,2.01.03v-.59c-.67-.01-1.34-.02-2.01-.03Z"/>
      <path class="cls-1" d="M892.07,387.8h-.71c0,.59,0,1.2,0,1.81h.71c0-.59,0-1.2,0-1.81Z"/>
      <path class="cls-1" d="M1073.81,392.65h.69c0-.59,0-1.19,0-1.79h-.69c0,.59,0,1.19,0,1.79Z"/>
      <path class="cls-1" d="M714.67,386.65c-.24,0-.48,0-.72-.01v1.84c.24,0,.48,0,.72.01,0-.61,0-1.22,0-1.84Z"/>
      <path class="cls-1" d="M1819.5,218.37l.64.02c0-.58,0-1.15,0-1.73l-.64-.02v1.73Z"/>
      <path class="cls-1" d="M1036.35,197.13l.69.02v-1.8c-.23,0-.46-.01-.69-.02v1.8Z"/>
      <path class="cls-1" d="M2032.6,221.88v-.57c-.62-.02-1.25-.03-1.87-.05v.57c.62.02,1.25.03,1.87.05Z"/>
      <path class="cls-1" d="M1562.56,208.48v.58c.66.02,1.31.04,1.97.05v-.58c-.66-.02-1.31-.04-1.97-.05Z"/>
      <path class="cls-1" d="M1016.18,192.96l-.7-.02v1.81c.23,0,.46.01.7.02v-1.81Z"/>
      <path class="cls-1" d="M2151.41,223.42v-.57c-.61-.02-1.23-.03-1.84-.05v.57c.61.02,1.23.03,1.84.05Z"/>
      <path class="cls-1" d="M1650.1,208.54l-.65-.02v1.75c.22,0,.43.01.65.02v-1.75Z"/>
      <path class="cls-1" d="M1007.81,190.93l-.7-.02c0,.6,0,1.21,0,1.81.23,0,.46.01.7.02v-1.81Z"/>
      <path class="cls-1" d="M1108.36,399.82v-.6c-.69-.01-1.38-.02-2.07-.03v.6c.69.01,1.38.02,2.07.03Z"/>
      <path class="cls-1" d="M1056.49,400.18v.6c.69.01,1.39.02,2.08.03v-.6c-.69-.01-1.39-.02-2.08-.03Z"/>
      <path class="cls-1" d="M1030.1,402.75c.23,0,.46,0,.7.01v-1.81c-.23,0-.46,0-.7-.01,0,.6,0,1.2,0,1.81Z"/>
      <path class="cls-1" d="M928,401.11h-.7c0,.59,0,1.2,0,1.8h.7c0-.59,0-1.2,0-1.8Z"/>
      <path class="cls-1" d="M2169.83,211.49v.56c.61.02,1.23.03,1.84.05v-.56c-.61-.02-1.23-.03-1.84-.05Z"/>
      <path class="cls-1" d="M1646.2,196.21l-.65-.02v1.75c.22,0,.43.01.65.02v-1.75Z"/>
      <path class="cls-1" d="M2314,200.4v.56c.6.02,1.21.03,1.81.05v-.56c-.6-.02-1.21-.03-1.81-.05Z"/>
      <path class="cls-1" d="M962.39,406.49v-.6c-.7-.01-1.4-.02-2.1-.03v.6c.7.01,1.4.02,2.1.03Z"/>
      <path class="cls-1" d="M1021.05,408.63v.6c.7.01,1.39.02,2.09.03v-.6c-.7-.01-1.39-.02-2.09-.03Z"/>
      <path class="cls-1" d="M2183.92,196.07c-.2,0-.41-.01-.61-.02v1.69c.2,0,.41.01.61.02,0-.56,0-1.13,0-1.69Z"/>
      <path class="cls-1" d="M1002.23,421.59v-.6c-.7-.01-1.4-.02-2.09-.03v.6c.7.01,1.4.02,2.09.03Z"/>
      <path class="cls-1" d="M911.81,423.86v-.61c-.7-.01-1.41-.02-2.11-.03v.61c.7.01,1.41.02,2.11.03Z"/>
      <path class="cls-1" d="M1578.96,166.29l.66.02v-1.75c-.22,0-.44-.01-.66-.02v1.75Z"/>
      <path class="cls-1" d="M1120.77,432.36v-.6c-.69-.01-1.38-.02-2.07-.03v.6c.69.01,1.38.02,2.07.03Z"/>
      <path class="cls-1" d="M1691.62,163.24v.58c.65.02,1.29.04,1.94.06v-.58c-.65-.02-1.29-.04-1.94-.06Z"/>
      <path class="cls-1" d="M1639.7,162.85l.65.02c0-.58,0-1.16,0-1.75l-.65-.02v1.75Z"/>
      <path class="cls-1" d="M922.37,448.83v.61c.7,0,1.41.02,2.11.03v-.61c-.7,0-1.41-.02-2.11-.03Z"/>
      <path class="cls-1" d="M1884.35,163.28l.63.02v-1.72c-.21,0-.42-.01-.63-.02,0,.57,0,1.15,0,1.72Z"/>
      <path class="cls-1" d="M2726.33,73.89l.58.02c0-.55,0-1.09,0-1.64l-.58-.02c0,.55,0,1.09,0,1.64Z"/>
      <path class="cls-1" d="M1587.47,143.77l-.65-.02c0,.58,0,1.17,0,1.75l.65.02v-1.75Z"/>
      <path class="cls-1" d="M1878.01,144.7v.57c.63.02,1.27.04,1.9.06v-.57c-.63-.02-1.27-.04-1.9-.06Z"/>
      <path class="cls-1" d="M1589.44,133.32l-.65-.02c0,.58,0,1.17,0,1.75l.65.02v-1.75Z"/>
      <path class="cls-1" d="M306.67,428.59c3.08.17,5.92-.96,6.58-3.6.32-1.26-2.39-2.95-2.57-4.28,9.28-6.67,19.44-12.27,27.08-20.41,10.99-5.28,17.3-13.82,25.85-21.28,1.1-.52,3.47.71,4.34-.11,4.92-4.67,3.29-10.62,4.08-16.51,9.77-4.06,14.78-10.74,20.52-18.2,2-.14,4.12-.31,6.04-.44-.15-1.12-2.63-1.81-2.34-3.01.89-3.71,6.19-5.84,8.06-9.4-.36-4.36,5.34-5.62,3.43-10.57,1.14-.3,1.74-2.52,3-2.45,2.9.17,6.3,1.83,9.24,2.3,1.51-2.32,1.51-5.62,3.09-7.99,1.58-2.37,2.15-2.68.2-5.3-.72,1.2.9,4.32-.2,5.3-1.48,1.32-5.05.88-6.72,1.96.71-2.53,1.59-4.91,2.37-7.38-9,.62-18.02,1.24-27.03,1.86-15.4,9.13-32.43,14.02-50.54,18.65-21.08.6-34.22,20.73-47.13,31.59-5.49,4.62-8.59,7.55-14.8,10.14-6.22,2.59-12.44-1-18.01,3.3-13.58.48-31.15-1.85-43.51,3.24-35.24-10.93-50-27.12-44.28-58.35,1.8-1.22,3.59-2.44,5.39-3.65,6.61,2.2,14.48,2.26,20.48,5.6,5.09-.99,10.12-1.82,14.88-3.63,1.52.83,3.05,1.64,4.56,2.49,4.49-6.14,8.88-11.57,13.39-18.04.49-.7-.97-4.44.31-5.54,1.18-1.01,2.99-4.08,5.57-4.36,5.88-.63,11.77,3.99,17.74.35,4.98,1.76,8.27,4.01,13.73,5.52,1.44.4,6.96.44,9.14.07.65-.11,2.66-1.56,2.93-2.86.54-2.61-.1-7.23.17-10.23,15.04-14.34,34.74-1.94,53.39,1.47,1.85-1.31,3.01-5.24,5-6.06,3.8-1.58,8.05-2.97,12-3.56,3.95-.58,8.02,1.27,11.98,1.12,1.77-2.18,3.52-4.54,5.28-6.79,10.18-2.15,18.28-2.75,27.53,2.32,19.45-15.94,52.59-30.81,79.68-19.9,5.77-1.22,11.54-2.44,17.31-3.65,12.72-15.54,22.5-20.24,45.21-20.21,14.39-11.57,30.26-21.62,44.78-32.99,4.5-19.02,16.55-31.96,28.5-47.82.56-13.79,3.8-27.25,4.36-41.04-21.87,5.23-39.8,16.91-63.09,18.54-6.42,2.37-12.22,1.06-19.02,1.15-11.04-4.83-20.37-10.56-29.24-17.99-1.48-8.57-4.72-16.81-6.91-25.29,2.31-.22,4.63-.43,6.94-.65-.99-1.92-1.96-3.72-2.97-5.71,2.51-1.36,4.61-4.86,7.19-5.79,4.46-1.59,9.27-1.3,13.81-2.48,2.24-3.58,4.44-7.28,6.67-10.91,3.18,3.17,6.9,5.26,8.28,9.39,7.68,1.33,15,3.73,21.92,0-5.03-2.48-8.05-6.24-11.66-10.02,3.87-1.05,8-2.95,11.77-3.71,1.16-.23,1.63,1.69,2.67,1.79,5.01-3.39,9.82-7.14,15.2-10.21,10.01.08,19.47-2.02,29.58-1,7.14-3.9,17.98-1.9,25.51-3.36,10.33-2,17.56-6.15,26.72-9.64,18.6-12.22,40.72-10.87,62.06-17.72,5.3,9.98,15.35,16.63,25.71,22.74,3.42-2.5,7.1-4.96,10.35-7.48,14.66-3.92,22.45-11.14,39.45-12.44,11.93-.91,33.08.17,45.73,4.67,6.74-1.63,17.54-3.81,23.96-.63,2.45-1.12,8.6-1.09,10.94-.56,2.33.52,3.07.93,4.57,2,.89.64-.02,3.24.64,4.24,1.57-.14,4.07.53,5.48.08.87-.28.4-2.17,1.04-2.73,6.26.16,12.61.44,18.9.66-.81.8-1.59,1.67-2.42,2.42,6.34,1.63,5.55-4.18,9.29-6.43,7.35-4.43,15.69-6.22,24.02-8.72,4.77-3.46,9.49-6.95,14.27-10.46,2.94,8.53,10.06,7.98,17.95,11.97,7.89,3.99,12.87,11.09,20.38,15.47,1.53-1.2,1.9-3.75,3.75-4.66,1.45-.71,4.64.41,6.4.03.72,4.96-2.44,9.63-6.83,12.43-.6,4.69-5.41,7.23-5.5,11.99-.44.56-3.11-.15-3.1.66.02,1.55,1.92,4.16,2.36,5.94-1.33-.89-2.78-1.83-4.16-2.74-2.65,1.78-3.49,3.85-3.41,6.72-1.24.49-3.65-.41-4.66.39-1.01.8-2.28,2.85-2.57,4.1-.29,1.24,1.6,2.91,1.67,4.26-.97-.22-2.83.68-3.68.18-.86-.5-.8-2.43-1.48-3.21-2.6,1.49-2.92,4.78-4.84,6.87-.46-1.2-.93-2.4-1.39-3.61-2.84,1.24-5.69,2.48-8.53,3.73,1.75.78,3.49,1.55,5.24,2.33-14.91,3.27-28.65,1.82-43.85-.69-6.24,2.78-12.49,5.56-18.74,8.34-14.33-.41-25.27-8.37-37.6-14.14-.79.36-1.94,1.74-2.65,1.87-.71.13-.98-.98-1.59-1.11-11.24,1.02-22.19,1.75-33.66,3.02-.23.03-1.47,2.12-2.31,2.4-1.6.54-5.15-.85-6.67.04-2.53,1.49-4.05,4.74-6.31,6.55-1.07-1.21-1.2-3.9-2.54-4.82-1.23-.84-3.77.11-5.24-.39.68,1.55,1.45,2.96,2.17,4.46-24.17,4.93-48.41,3.23-73.4,2.18-3.4,1.15-5.74,2.81-9.6,2.23-2.16,1.32-3.47,4.97-5.8,5.82-4.62,1.68-9.94,1.46-14.73,2.72,3.06,25.8-15.29,41.34-32.35,60.39-.22,2.82.31,6-.16,8.72-.19,1.1-3.17,1.41-3.38,2.38-1.11,5.37-1.53,10.83-2.36,16.2.79.75,2.97.72,3.5,1.44.53.72-.68,2.28-.48,3.16-1.08-.77-2.04-1.6-3.08-2.39-1.2,6.76-2.41,13.52-3.61,20.28-5.58,0-11.03-.26-16.69-.36-27.99,9.59-59.49,17.09-84.77,30.39-10.66,5.61-9.89,12.36-16.5,19.94-6.61,7.59-16.69,11.47-25.24,17.46.64.98,1.3,1.95,1.94,2.92-9.83,11.58-20.97,22.19-32.04,32.95-3.12-.06-6.23-.13-9.35-.19.78,4.71,2.6,5.18,7.96,6.32-17.93,12.17-30.36,28.58-47.32,41.65-13.17,10.15-21.11,23.53-36.3,31.9.01,2.99,0,5.96,0,8.94-4.36,2.83-8.73,5.67-13.09,8.51.62,4.43,1.3,8.87,1.89,13.29-1.29,1.51-3.65,2.66-4.62,4.24-.52.85,2.31.84,1.74,2.2-3.16,7.49-17.31,17.04-24.96,20.28-13.28,5.63-24.27,5.86-37.93,7.79-6.34,5.64-12.87,11.45-19.3,17.17-2.92,6.26-9.88,9.99-11.82,16.59-5.84,5.72-11.69,11.43-17.54,17.15-1.81,5.67-5.77,9.73-10.73,13.78-3.05-.03-6.1-.06-9.15-.09-3.51,4.97-10.49,5.1-12.99,10.96-1.58.2-6.36-.33-7.39,0-8.7,2.81-15.11,7.41-23.98,9.22-2.46,2.94-6.62,6.11-8.66,9.01-1.12,1.6.28,4.6-.29,5.72-5.79,11.47-18.35,14.06-29.28,20.75-13.35,8.17-21.35,19.8-31.54,30.13-6.74,6.83-14.09,12.13-20.37,19.2-6.29,7.07-8.72,15.97-17.04,21.91.03,2.53,0,5.01.01,7.51-2.11,1.06-4.23,2.12-6.35,3.19-4.39,7.33-8.36,14.74-13.67,21.69-3.78.53-6.62,1.04-7.57,4.49-.19.68,1.97,1.84,2.16,2.6-7.88,5.52-12,12.25-22.29,15.87-.47.17-5.25-.08-6.33.03-11.06,8.13-27.2,6.22-40.59,4.12.15.86,2.17,2.24,1.83,2.97-.26.57-3.32.42-4.03.84-.71-5.35.44-10.99-.48-16.21-.33-1.88-3.79-2.98-4.63-4.74,4.08-3.01,8.39-6.09,12.56-9.12-4.16-1.63-8.33-3.26-12.5-4.89,1.75-1.71,3.5-3.42,5.25-5.12-1.06-2.69-2.18-5.38-3.19-8.08,1.29-1.52,3.95-3.15,4.9-4.65.95-1.5-.51-3.62.32-4.95,5.37-8.51,18.16-12.58,25.22-19.26,10-9.46,11.74-21.13,20.97-30.64.62-1.73-.89-3.83.24-5.48,2.73-3.98,4.84-7.65,10.71-8.85.44-1.83.77-3.66,1.17-5.52,4.13-1.62,8.1-3.84,12.3-5.2.66-.21,1.9,1.7,2.64,1.81,14.81-17.89,30-33.4,56.83-37.85,2.29-3.01,4.58-6.01,6.87-9.02,29.58-13.78,43.29-40.41,78.66-44.91,13.11-13.31,30.35-24.24,39.02-40.12,8.71-1.94,16.68-3.13,22.47-9.27,5.16-.7,10.31-1.4,15.47-2.1-.66.95-1.32,1.9-1.99,2.85,6.14.9,7.19.35,8.77-4.63ZM855.82,28.08c.23,0-.51.19-.31.35.2.16,1.17,1.38,1.38,1.41.21.03.71-.17.61-.53-.1-.36-1.42-.57-1.78-1.2-.36-.63-.33-2.58-.61-3.45-2.87,1.15-5.88.13-8.85-.69,1.28,2.19,2.76,2.63,5.15,1.44-1.96-.53-1.45-.07,0,.85.47,2.38,2.31,1.74,4.39,1.82ZM219.36,367.39c-1.23-2.28-2.91-2.68-5.44-1.41,2.11.47,1.47.15.06-.85-.24-.17,1.35-.68.94-.95-1.42-.95-3.52-2.01-5.27-2.93.88.9-1.47,2.77.17,3.45,1.87.78,7.19,1.35,9.55,2.69ZM887.66,33.47c3.06-.27,6.06-.46,9.1-.7-.77-1.34-1.53-2.69-2.3-4.03-1.92,1.31-3.44,2.67-4.62,4.49-.08.13-.23-.43-.44-.29s-1.54.98-1.59,1.12c-.05.14.28.73.64.52.36-.21.49-1.17-.8-1.11ZM641.04,160.71c7.89-1.38,11.99-5.93,12.36-12.72-4.12,1.81-8.24,3.61-12.36,5.42,0,2.43,0,4.87,0,7.3ZM69.71,633.47c-.34-1.75.44-4.48-.16-5.99-.6-1.51-2.56-1.81-3.41-3.09-2.08,1.98-4.06,3.88-6.1,5.82,2.57,3.2,5.05,4.26,9.67,3.26ZM70.3,618.86c3.83-1.69,6.48-3.88,8.15-7.2-1.35-.87-2.69-1.74-4.04-2.61-4.92,2.58-5.22,5.33-4.11,9.81ZM450.12,257.72c4.13-.52,7.62.41,11.49-1.18-1.13-.51-2.52-3.8-3.62-3.78-2.57.04-6.07,1.38-8.21,2.17-.87.32.8,2.24.34,2.8ZM963.15,13.85c-2.77,1.48-4.42,2.39-3.14,5.46,3.34-.75,6.68-1.5,10.02-2.25-2.29-1.07-4.59-2.13-6.88-3.2ZM258.78,490.7c2.17.92,4.34,1.83,6.51,2.75,2.81-2.2,4.2-4.05,2.04-7.06-2.85,1.44-5.69,2.87-8.54,4.31ZM668.74,128.6c-2.2-.12-4.24-.21-6.44-.17.46.84-.09,4.29.61,4.62,1.09.52,4.43.73,5.4.2,1.18-.65.37-3.52.43-4.65ZM459.69,302.53c5.31,3.65,7.04,4.86,11.42.24-3.8-.08-7.61-.16-11.42-.24ZM929.98,61.43c2.68.09,5.36.18,8.04.27,0-1,0-2,0-3-2.68-.09-5.36-.19-8.04-.28,0,1,0,2,0,3ZM663.22,126.44c2.94-.08,5.87-.16,8.8-.24-.77-1.6-1.55-3.21-2.32-4.81-2.16,1.68-4.32,3.37-6.48,5.05ZM968.06,28.21c.78.28,4.74.42,5.52.2.49-.14.49-2.59,0-2.77-.78-.28-4.74-.42-5.52-.2-.49.14-.49,2.59,0,2.77ZM363.51,408.98c2.37,1.6,4.75,3.19,7.12,4.79.42-1.55.83-3.11,1.24-4.66-2.79-.04-5.57-.08-8.36-.13ZM743.88,76.93c2.64.09,5.28.17,7.92.26-1.98-1.43-3.97-2.86-5.95-4.29-.66,1.34-1.31,2.69-1.97,4.03ZM271.62,484.14c2.71.03,5.41.06,8.12.09-.31-1.45-.61-2.9-.92-4.36-2.4,1.42-4.8,2.84-7.2,4.26ZM67.2,615.64c-1.93,2-3.86,4.01-5.78,6.02,1.93.36,3.86.72,5.78,1.08,0-2.37,0-4.73,0-7.1ZM868.33,38.4c-.28.64.89,1.18,1.28,1.25.39.07,2.78.15,3.04-.48.28-.67-.78-3.35-.85-4.34-.73.83-3.19,2.93-3.47,3.57ZM606.19,207.68c.88-1.77,3.02-3.97,2.39-3.93-.63.04-.83-3.29-1.44-3.55-.14-.06-.78-.3-.91.71-.13,1.01.04,5.1-.04,6.76ZM353.82,433.73c-.42.22.11,1.16.58,1.17,1.79.03,4.5-.4,6.51-.55-.88-.42-1.85-2.08-2.79-2.18-.94-.11-3.88,1.34-4.3,1.56ZM197.64,327.71c.31,2.41.7,4.83,1.19,7.26.44-1.13,3.58-1.9,3.38-3.11-.2-1.21-3.73-2.86-4.56-4.15ZM964.87,48.37c-.76-.26-1.32.71-1.39,1.04-.06.33-.06,2.37.68,2.62.79.27,3.83-.53,4.97-.56-.99-.66-3.51-2.84-4.27-3.11ZM595.61,98.67c2.68-.18,5.37-.41,8.07-.73-1.18-.37-2.01-3.05-3.26-2.9-1.45.17-3.29,2.94-4.81,3.63ZM976.31,39.35c1.47-.31,5.07.65,6.03.03.9-.58-.95-2.8-.58-3.68-1.89,1.17-3.71,2.39-5.46,3.65ZM660.5,94.42c1.53-.32,5.25.65,6.24.02.93-.59-.99-2.84-.6-3.74-1.96,1.2-3.83,2.44-5.64,3.73ZM696.49,23.99c.41-.03.37-1.47-.04-1.48-1.26-.04-4.14.26-5.52.42-.27.03-.19.87.08.89,1.37.1,4.24.27,5.47.17ZM862.86,44.04c-3.33-1.08-5.47-1.57-4.73,1.86,1.58-.62,3.15-1.24,4.73-1.86ZM744.05,43.23c-.99.13-4.6,1.95-5.98,2.47,1.21-.01,5.24.36,5.94.15.67-.2.67-2.7.04-2.62ZM939.8,25.45c.4-.03.31-1.47-.09-1.48-1.21-.04-4.01.27-5.33.43-.26.03-.17.86.09.88,1.33.09,4.14.27,5.33.17ZM881.68,38.71c1.81-1.45,3.56-2.93,5.23-4.44-1.33.53-4.88.27-5.7.99-.88.78.84,2.49.47,3.45ZM266.61,330.69c-.43.04-.33,1.52.1,1.53,1.3.02,4.3-.35,5.71-.53.28-.04.18-.89-.1-.91-1.43-.07-4.44-.21-5.72-.09ZM217.8,345.22c-3.92-.71-3.25,1.1-2.99,3.92,1-1.31,1.99-2.61,2.99-3.92ZM234.67,503.83c.62,0,3.94-1.31,4.34-1.57.4-.26-.33-.78-.71-.88s-3.27-.19-3.61,0c-.34.19-.33,2.45-.02,2.45ZM598.14,78.66c1.37-3.16,1.27-4.5-2.91-4.03.97,1.34,1.94,2.69,2.91,4.03ZM605.34,103.82c.41-.04.24-1.48-.18-1.49-1.25-.03-4.1.3-5.45.47-.26.03-.16.86.11.87,1.39.09,4.29.26,5.52.15ZM522.06,255.11c.29-.13.11-1.38-.22-1.46-.32-.08-3.01.44-3.3.57-.29.13-.17.75.16.83s3.07.19,3.36.06ZM824.23,22c-.28.12-.1,1.36.21,1.44s2.91-.4,3.19-.52c.28-.12.16-.74-.15-.82-.31-.08-2.97-.22-3.25-.1ZM205.28,360.75c.17.25,1.69.12,1.79-.16.09-.27-.63-2.59-.79-2.84-.17-.25-.92-.16-1.02.12-.09.28-.15,2.62.02,2.87ZM410.09,330.78c.16.25,1.66.12,1.75-.15.09-.27-.61-2.56-.78-2.81-.16-.25-.9-.16-.99.11s-.14,2.6.02,2.85ZM380.82,368.5c-.38.07-.38.77,0,.86.38.08,3.73.14,4.11.07.38-.07.38-.77,0-.86-.38-.09-3.73-.14-4.11-.07ZM328.68,318.87c-.16-.26-1.66-.21-1.75.06-.09.27.57,2.63.73,2.89.16.26.94.18,1.04-.1.09-.27.14-2.6-.02-2.86ZM672.82,95.74c-.16-.25-1.6-.23-1.69.04-.09.27.55,2.59.71,2.85.16.26.91.18,1-.08.09-.26.14-2.55-.02-2.81ZM393.59,389.22c-.16-.25-1.65-.2-1.74.07-.09.27.57,2.62.73,2.88s.94.17,1.03-.1c.09-.27.14-2.59-.02-2.85ZM934.17,17.02c-.36.06-.36.74,0,.83.36.09,3.52.21,3.88.14.36-.06.36-.74,0-.83-.36-.09-3.52-.21-3.88-.14ZM291.39,458.77c-.3.14-.11,1.39.22,1.48.33.08,3.08-.48,3.38-.61.3-.13.17-.76-.16-.84s-3.14-.16-3.44-.03ZM252.01,492.17c-.17-.25-1.69-.11-1.78.17-.09.28.62,2.58.79,2.83.17.25.92.15,1.01-.12.09-.27.15-2.62-.02-2.87ZM629.24,110.63c-.09-.31-.91-.34-1-.03s-.09,3.08,0,3.39c.09.32.91.34,1,.03.09-.31.09-3.08,0-3.39ZM87.65,583.29c-.17-.25-1.72-.1-1.81.18-.09.28.63,2.59.8,2.84.17.25.93.15,1.03-.13.09-.28.15-2.64-.02-2.89ZM200.09,351.15c.39-.07.39-.78,0-.87s-3.8-.15-4.19-.08c-.39.07-.39.78,0,.87.39.09,3.8.15,4.19.08ZM864.1,38.83c.18-.04.18-.5,0-.56s-1.77-.11-1.95-.07c-.18.05-.18.5,0,.56.18.06,1.77.11,1.95.07ZM915.75,37.58c.06.16.59.18.65.02.06-.15.06-1.52,0-1.67-.06-.16-.59-.17-.65-.02-.06.15-.06,1.52,0,1.67ZM888.9,38.59c-.06-.16-.59-.18-.65-.02-.06.15-.06,1.52,0,1.67.06.16.59.18.65.02.06-.15.06-1.52,0-1.67ZM884.66,42.08c-.06-.16-.59-.18-.65-.02-.06.15-.06,1.52,0,1.67.06.16.59.18.65.02s.06-1.52,0-1.67ZM910.7,44.11c.18-.04.18-.5,0-.56-.18-.05-1.76-.11-1.94-.07s-.18.5,0,.56c.18.06,1.76.11,1.94.07ZM742.26,40.04c.18-.04.18-.51,0-.56-.18-.06-1.8-.12-1.98-.07-.18.05-.18.5,0,.56.18.06,1.8.11,1.98.07ZM484.98,298.57c.19-.05.19-.52,0-.57-.19-.05-1.85-.09-2.03-.04-.19.05-.19.51,0,.57.19.06,1.85.09,2.03.04ZM891.83,44.71c-.18.05-.18.5,0,.56s1.77.11,1.95.07.18-.5,0-.56c-.18-.06-1.77-.11-1.95-.07ZM737.96,43.55c.18-.04.18-.5,0-.56s-1.8-.11-1.98-.07c-.18.05-.18.5,0,.56.18.06,1.8.11,1.98.07ZM643.63,42.68c.06.16.6.18.67.02.06-.15.06-1.54,0-1.69-.06-.16-.61-.18-.67-.02s-.06,1.54,0,1.7ZM714.43,27.48c-.18.05-.18.5,0,.56s1.8.12,1.98.07.18-.5,0-.56-1.8-.12-1.98-.07ZM850.04,57.12c.06.16.59.17.65.02.06-.15.06-1.52,0-1.68-.06-.16-.59-.18-.65-.02-.06.15-.06,1.52,0,1.68ZM854.95,55.61c-.06-.16-.59-.18-.65-.02-.06.15-.06,1.52,0,1.68.06.16.59.18.65.02.06-.15.06-1.52,0-1.68ZM684.18,52.15c-.18.05-.18.5,0,.56.18.06,1.81.11,1.99.07s.18-.5,0-.56-1.81-.11-1.99-.07ZM786.68,27.67c-.06-.16-.6-.18-.66-.02-.06.15-.06,1.53,0,1.68.06.16.6.17.66.02.06-.15.06-1.52,0-1.68ZM816.61,26.91c-.06-.16-.59-.18-.65-.02s-.06,1.52,0,1.68.59.18.65.02c.06-.15.06-1.52,0-1.68ZM924.84,28.97c-.06-.16-.59-.17-.65-.02-.06.15-.06,1.52,0,1.67.06.15.59.17.65.02.06-.15.06-1.51,0-1.67ZM500.62,257.49c-.19.05-.19.51,0,.57.19.06,1.84.09,2.03.05s.19-.51,0-.57-1.84-.1-2.03-.05ZM914.28,28.59c-.06-.16-.59-.17-.65-.02-.06.15-.06,1.52,0,1.67.06.15.59.17.65.02.06-.15.06-1.51,0-1.67ZM866.39,25.61c-.18.05-.18.5,0,.56s1.77.11,1.95.07.18-.5,0-.56-1.77-.11-1.95-.07ZM861.32,24.87c-.06-.16-.59-.18-.65-.02-.06.16-.06,1.52,0,1.68.06.16.59.18.65.02.06-.15.06-1.52,0-1.68ZM512.99,75.4c-.06-.16-.61-.18-.68-.02-.06.16-.06,1.55,0,1.71.06.16.61.18.68.02.06-.16.06-1.55,0-1.71ZM380.73,363.04c-.19.05-.19.52,0,.57s1.87.08,2.05.04.19-.52,0-.57-1.87-.09-2.05-.04ZM953.69,26.24c.06.16.59.17.64.02.06-.15.06-1.51,0-1.67-.06-.16-.59-.18-.64-.02s-.06,1.51,0,1.67ZM948.02,24.36c-.06-.16-.59-.18-.65-.02-.06.15-.06,1.51,0,1.67.06.16.59.17.65.02.06-.15.06-1.51,0-1.67ZM636.44,94.75c-.18.05-.18.51,0,.57.18.06,1.82.11,2,.06s.18-.51,0-.57-1.82-.11-2-.06ZM616,97.22c-.06-.16-.61-.18-.67-.02-.06.16-.06,1.54,0,1.7.06.16.61.18.67.02s.06-1.54,0-1.7ZM624.72,119.63c-.06-.16-.61-.18-.67-.02-.06.15-.06,1.54,0,1.7.06.16.61.18.67.02s.06-1.54,0-1.7ZM230.59,506.49c.06.16.63.16.7,0,.06-.16.06-1.57,0-1.73-.06-.16-.63-.17-.7,0s-.06,1.57,0,1.73ZM244.89,510.55c-.06-.16-.63-.17-.69,0-.06.16-.06,1.57,0,1.73.06.16.63.17.69,0,.06-.16.06-1.57,0-1.73ZM41.88,637.04c.2-.05.2-.53,0-.58-.2-.05-1.93-.06-2.13,0-.2.05-.2.53,0,.58.2.05,1.93.06,2.13,0Z"/>
      <path class="cls-1" d="M2110.51,67.8c1.82.71,2.91,1.14,3.9,1.53,2.04-1.19,3.86-2.24,5.96-3.47,7.85.28,20.4-.35,20.9,9.75,5.98,1.87,11.7,4.58,16.25,9.6,0,1.39,0,3.08,0,3.88,1.27,2.47,2.12,4.11,3.1,5.99-1.1,1.21-2.09,2.29-3.24,3.55.54.68,1.01,1.28,1.42,1.78-4.76,7.22-10.44,14.32-20.38,15.71-4.84.68-16.85.56-21.72-.28-16.7-2.87-18.64-23.01-24.79-33.98,4.43-10.79,9.86-8.6,18.61-14.06ZM2100.69,92.89c2,.07,2.85.1,3.86.13-.19-.85-.3-1.37-.55-2.5-1.07.76-1.77,1.26-3.31,2.37ZM2123.46,80.76v-.39c-.42-.02-.85-.03-1.27-.05v.39c.42.01.85.03,1.27.04Z"/>
      <g>
        <path class="cls-1" d="M902.44,267.08c0-.14-.69-.21-.9.31-.21.51-.19,4.16-.71,4.65-.34.32-2.89.44-3.2-.19-.78-1.59-.69-4.72-1.25-6.66-8.84,3.23-13.24-1.73-19.18-7.14,4.84.67,9.66,1.34,14.5,2-5.41-5.66-12.07-8.6-20.31-5.57-9.4-4.19-26.19,2.12-33.94,4.38-16.34,4.75-24.31,10.27-34.18,21.09-2.03-.08-4.34-.12-6.48-.15-4.89-2.59-7.96-3.7-13.67-3.58-5.9,2.43-11.77,5.1-17.34,7.88,11.61-23.95,11.07-39.02-17.31-53.75-22.76-11.82-46.5-8.63-71.78-7.67-8,5.47-17.08,7.63-19.46,16.83-5.23,2.47-10.56,4.81-15.88,7.17-9.79-5.74-21.1-8.37-31.03-13.89-4.47,2.59-9.58,1.45-14.75,2.07-2.53,3.52-5.1,7.02-7.75,10.47-4.97-.26-9.95-.62-14.91-1.05-.33,1.01-.66,2.03-.99,3.04-11.57-1.01-23.16-1.99-34.79-2.68-8.57,4.01-15.3,8.78-21.58,15.08,0,.54,1.65,1.04,1.36,1.58-1.08,2-3.14,4.02-4.48,6.03-6.5.51-11.08,2.43-15.37,6.49,2.53,1.76,2.35,3.19.42,5.17,1.47,1.78,2.94,3.56,4.41,5.34,6.31-.21,12.17,1.19,18.24-.85,21.45,7.48,43.89-3.5,63.55-7.83,12.35-2.72,20.47-3.24,32.52-3.78,12.03-.54,24.45,2.82,36.68.31,8.87,6.95,29.81,5.58,39.23,6.76,9.41,1.19,12.76.1,19.4,4.15,3.93,2.4,1.85,8.25,5.95,10.8-5.79,6.71-6.15,18.98-9.33,25.79-5.08,10.87-9.12,18.37-10.87,29.46,9.35,23.77-16.2,34.03-23.62,55.14,6.98,3.73,14.75,5.09,18.99,11.52-8.52-2.27-11.39-2.04-17.24,3.67.3,1.99-1.39,4.24-.62,6.14.51,1.27,4.36,1.45,5.33,2.82.97,1.37,1.28,3.64,2.14,5.19,4.38-2.83,11.1-4.21,13.43-8.66,1.05-2.01-.62-4.23,0-6.28.94.66,2.08,1.34,3.1,2,3.59-4.8,6.58-8.95,13.2-10.66,13.36-22.7,30.57-40.45,46.87-62.14,11.91-15.84,30.29-29.68,49.83-39.31,2.14,1.5,4.09,3.09,6.17,4.61-2.79,3.65-5.59,7.29-8.34,10.97.93,1.02,1.92,1.97,2.88,2.96,6.91,4.65,14.35,7.98,22.86,9.23,3.83.56,7.53.44,11.16,0,4.03-.66,8.13-1.57,12.73-2.84,4.05-1.12,8.07-2.45,11.96-4.04.34-.15,1.51-.66,1.5-.65.96-.44,1.9-.89,2.84-1.36,1.67-.84,3.32-1.75,4.92-2.73.82-.5,1.63-1.03,2.42-1.58.19-.13,1.01-.77,1.37-1.03,1.02-.86,2.02-1.74,2.94-2.7.24-.25,1.22-1.51,1.29-1.55.21-.32.44-.63.63-.95.33-.56.6-1.14.9-1.71-1.14,2.15-.03-.16.14-.79.9-3.33,3.08-5.22,5.61-5.97-3.99-4.04-7.07-8.18-9.35-13.45-1.51-.38-3.02-.78-4.53-1.14,1.41-2.44,2.81-4.88,4.22-7.32,2.53,1.72,3.23,3.06.9,5.1,1.06,1.23,1.76,3.38,3,4.29.55.4,1.29-1.47,2.06-1.28.77.18,2.12,1.05,3,1.37.11-2.86.08-5.77.24-8.65,1.29-.42,4.5-.85,5.35-1.27.84-.42-.68-.83-.29-1.25-2.62.1-4.99.21-7.6.31.38-.83-.85-1.72-.09-2.53.76-.81,3.65-1.48,4.7-2.31-.38-.32-3.56-1.87-3.56-1.99,0-1.75.95-3.07,1.32-4.65,4.76,2.42,8.85,3.34,11.51-1.39.69-1.23-1.21-3.89-1.11-5.16ZM683.12,257.24c-.08-1.06-.17-2.13-.25-3.19,4.28-1.09,7.22-1.38,10.5,1.67-3.31,1.18-6.73,1.1-10.25,1.52ZM701.39,273.56c-.72-.45-1.2-2.28-.77-2.91.4-.59,2.74-.54,3.5-1.01.14,1.26.14,2.46.19,3.72-.78.12-2.2.65-2.92.2ZM711.64,390.9c-.11.18-.57.34-1.04.09s-1.2-2.34-.94-2.73c.26-.39,1.23-.54,1.7-.14s.64,2.16.27,2.77ZM735.08,252.04c-.83,2.81-1.49,5.77-2.43,8.51-.11.31-.85.03-1.04.26-.16-2.83-.32-5.61-.48-8.42,1.32-.11,2.64-.24,3.96-.35ZM733.09,264.33c-.19,1.48,1,3.69.44,4.97-.36.81-3.01.4-3.76,1.01-.16-1.78-.14-3.47-.25-5.22,1.2-.25,2.33-.53,3.57-.75ZM721.97,367.76c-.29.4-2.79.77-3.26.52-.47-.25-.79-1.07-.29-1.45s2.64-.33,3.36.05c.21.11.48.49.19.89ZM717.9,350.99c-.64-.43-1.28-.87-1.92-1.29.9-1.62,1.89-3.2,2.86-4.8,1.16,1.05,2.33,2.1,3.5,3.15-1.48.98-2.96,1.96-4.44,2.94ZM723.47,321.07c-.4.49-2.96.36-3.37,0-.41-.35-.48-.62-.13-.81.34-.19,2.81-.73,3.23-.58.42.14.68.9.28,1.39ZM723.43,287.32c1.57-4.3,3.04-8.7,4.68-12.94.34.93,2.62,3.5,2.62,4.15.02,4.34-.86,7.91-1.16,12.01-5.16,1.22-1.98-3.56-6.14-3.22ZM732.13,339.76c-1.94-.74-3.87-1.49-5.8-2.24-.04-1.3-.08-2.6-.11-3.89,3.05,0,6.1-.03,9.16.01-1.1,2.03-2.17,4.07-3.24,6.11ZM735.42,315.61c0-1.3-1.28-4.59-.97-5.46.32-.86,1.02-.95,1.96-.89.94.06,3.38,2.2,4.58,2.63-1.82,1.3-3.67,2.55-5.57,3.72ZM742.99,248.21c-.36,1.92-1.25,3.79-2.18,5.59-1.34-.98-2.72-1.92-4.07-2.9,1.89-1.09,3.91-2.53,5.75-3.48.35-.18.78.59.91.65.12.06-.38-.03-.41.13ZM743.12,244.9c.18-.36.81-.92,1.07-.69.27.23,1.69,2.86,1.6,3.2s-1.77.71-2.17.49c-.4-.23-.68-2.63-.51-2.99ZM748.39,299.12c.68.36.43,2.28.93,2.92-1.52.07-2.96.04-4.47.05-.08-.68-.57-1.87.03-2.44.59-.57,2.78-.91,3.51-.53ZM746.01,347.08c-1.16-.42-2.24-2.51-2.08-3.07.16-.56.87-.38,1.33-.16.46.22,1.49,2.77,1.12,3.18-.36.41-.21.04-.33.1-.12.07,0-.05-.04-.06ZM750.47,350.31c-.28.3-3.35.53-3.71.28-.39-.26-.84-2.99-.56-3.22.4-.31,3.35-.14,3.78.16.43.3.77,2.48.49,2.78ZM748.33,244.68c1.46-.31,2.91-.63,4.37-.94.1,1.83.22,3.67.32,5.5-1.56-1.52-3.13-3.04-4.69-4.56ZM767.79,316.98c-1.03-.53-1.82-2.29-2.92-2.51-1.2-.24-3.23,2.06-4.31,1.77-.66-.18-.3-2.42-.78-2.97,2.95-.06,5.82.02,8.74.05-.24,1.21-.49,2.49-.73,3.66ZM774.67,314.3c-.58.58-2.77.89-3.51.49-.69-.38-.51-2.33-1.03-2.99,1.52-.05,2.97,0,4.48.02.1.68.64,1.9.06,2.49ZM782.12,323.64c-.09-1.17-.17-2.35-.24-3.52.35,0,.71,0,1.06,0,.06,1.17.16,2.35.25,3.52-.36,0-.71,0-1.07,0ZM781.36,316.6c-.72-.33-.16-1.13-.62-1.58,1.27.08,2.61-.12,3.79.08.28.05.82.07.63.69-.19.61-3.08,1.14-3.8.81ZM808.16,304.52c-.09-1.15-.18-2.3-.29-3.45.35,0,.69,0,1.04,0,.1,1.14.21,2.29.29,3.44-.35,0-.7,0-1.05,0ZM813.82,303.95c-.26.39-1.21.61-1.69.21-.48-.4-.56-2.11-.18-2.71.11-.17.54-.34.99-.1.45.24,1.14,2.22.88,2.61ZM875.51,271.5c.06,1.23.12,2.47.19,3.7-.35.02-.7.02-1.05.04-.06-1.24-.12-2.47-.19-3.71.35,0,.7-.02,1.05-.03ZM865.07,258.6c-.07,3.56-1.89,5.05-5.93,5.54-.08-1.68-.16-3.36-.25-5.04,2.06-.17,4.12-.33,6.17-.5ZM845.39,289.97c.15,2.07.36,4.14.55,6.21-1.17-.02-2.33-.04-3.5-.06.98-2.05,1.97-4.11,2.94-6.16ZM843.16,309.6c.86.48.14,3.07.21,3.49.03.2-1.47-.94-1.71-1.26-.89-1.17.69-2.69,1.5-2.23ZM837.65,268.11c.07,1.22.13,2.44.2,3.65-.35,0-.69,0-1.04,0-.07-1.22-.13-2.44-.2-3.65.35,0,.69,0,1.04,0ZM832.34,298.92c-.51.19-1.08,3.21-1.61,2.9-.98-.59-.17-2.83,1.61-2.9ZM823.45,292.99c1.13-.19,3.49,1.69,4.16,2.83-.67-.09-3.31.37-3.67.08-.39-.3-1.11-2.81-.49-2.92ZM829.37,322.56c-1.24,1.38-2.48,2.77-3.71,4.15-2.54-.79-5.04-1.66-7.55-2.51-.21-1.66-.44-3.33-.62-5,4.75-3.6,6.13-3.01,10.9.62,1.93-.03,3.87-.06,5.8-.12.13.9.26,1.8.4,2.7-1.73.05-3.47.1-5.2.16ZM836.7,319.05c-.61-.3-.82-2.26-.37-2.58.46-.32.73-.38,1-.12.27.26,1.19,2.11,1.07,2.44-.12.33-1.1.56-1.71.26ZM838.48,304.2c-.42.33-.73.35-.99.09-.26-.26-1.12-2.18-.98-2.51.15-.32,1.08-.49,1.69-.19.61.3.69,2.27.28,2.61ZM839.46,282.91c.11-.17.54-.34.99-.09.45.25,1.1,2.29.83,2.68-.27.39-1.22.6-1.69.18-.47-.42-.52-2.17-.13-2.78ZM846.26,315.76c-.41.77-2.56,1.39-3.13,1.59-.47.16-.97-2.97-.97-2.97,0,0-1.99-.99-1.88-1.08s.87-.34,1.08-.35c.21-.01.8,1.43.8,1.43,0,0,4.99-.3,4.1,1.39ZM852.17,313.84c-.45.31-.72.36-1,.11-.28-.25-1.19-2.07-1.06-2.39.13-.32,1.1-.52,1.69-.22.59.3.83,2.18.37,2.5ZM857.89,331.49c-.19-1.04-.38-2.07-.56-3.11.35,0,.7-.02,1.05-.03.19,1.03.38,2.07.56,3.1-.35,0-.7.02-1.04.03ZM858.85,318.91c-8.36,3.07-5.12,1.83-3.29-3.33.71.66,3.24,2.04,3.64,2.47.4.43-.08.76-.35.86ZM863.16,302.71c-.11.16-.57.3-1.03.08-.45-.22-1.14-2.13-.88-2.5.26-.37,1.23-.49,1.69-.12.46.37.6,1.99.22,2.55ZM864.34,321.16c-.3-1.87-.6-3.73-.86-5.61,1.63.23,3.27.46,4.9.69-1.36,1.63-2.7,3.28-4.04,4.92ZM870.59,299.71c-6.11-2.41-6.82-3.54-2.83-8.15,2.99,2.85,3.23,4.4,2.83,8.15ZM871.05,291.22c-.08-.97-.13-1.93-.19-2.9,1.99-.11,3.98-.22,5.96-.32.06.98.12,1.97.18,2.95-1.98.1-3.96.24-5.95.26ZM873.1,309.44c1.15-.01,2.3-.03,3.45-.04.18,1.49.36,2.98.56,4.47-1.15,0-2.29.03-3.44.03-.22-1.48-.39-2.97-.57-4.46ZM877.08,321.83c-.17-1.04-.31-2.08-.47-3.12.35,0,.69,0,1.04,0,.15,1.04.31,2.08.47,3.12-.35,0-.69,0-1.04,0ZM878.81,305c-1.12.95-2.24,1.9-3.36,2.86-.8-1.73-1.62-3.45-2.43-5.18,1.93.78,3.86,1.56,5.8,2.32Z"/>
        <path class="cls-1" d="M665.24,424.41c-27.43,11.58-49.94,27.1-49.83,54.94,6.77,4.93,14.23,8.75,22.12,12.22,7.61-.44,14.12-1.21,19.74-5.84-1.17-2.56-2.25-5.15-3.35-7.74,2.79-.43,5.59-.84,8.38-1.25-1.38-3.7-2.79-7.48-4.14-11.14.4-.16,1.61.97,1.86.56.66-1.07.74-3.05,1.25-4.34,1.67.84,3.43,1.79,5.07,2.63.38-1.34-.44-3.72.22-4.83.66-1.1,2.8-.93,3.74-1.79-1.23-1.64-2.64-3.39-3.86-5.06,1.53-1.44,4.63-2.55,5.72-4.07.56-.78-2.46-2.37-2.15-3.22.57-1.53,4.17-3.63,4.45-4.97.36-1.73-.73-5.87-1.11-6.76-1.19-2.8-2.68-5.62-3.98-7.34-1.3-1.72-2.79-.78-4.12-2.01ZM649.05,463c-3.46-.82-4.76-3.29-3.88-6.25,4.55-1.04,3.14,2.5,6.38,3.88-.87.19-1.6,2.57-2.5,2.36ZM653.9,454.29c2.9-4.61.87-9.9,8.94-8.79-.31,6.38-1.56,7.67-8.94,8.79Z"/>
      </g>
      <path class="cls-1" d="M959.96,272.97c-.71-.02-1.75-.04-2.74-.06-1.37,1.87-2.73,3.72-4.4,5.99-1.77-1.04-3.12-1.83-4.6-2.71,1.92-5.4,1.15-7.82-.96-13.24,3.71-2.4,6.09-.89,8.27,1.27-.62,2-1.24,3.99-1.89,6.1,3.71.26,5.06-3.19,8.83-4.09-.82,2.22-1.64,4.43-2.5,6.74Z"/>
      <path class="cls-1" d="M2083.66,252.81c-5.45-8.02,1.55-8.27,8.76-10.53-1.25,5.37-4.35,8.23-8.76,10.53Z"/>
      <path class="cls-1" d="M1864.41,195.02c-1.64,1.19-3.67,2.68-5.58,4.06-2.53-1.63.14-8.24.14-10.51,2.22.06,3.69.11,5.44.16,0,2.07,0,3.96,0,6.3Z"/>
      <path class="cls-1" d="M1601.45,337.3c-5.15-1.73-6.11-4-5.08-7.36,1.72.71,3.42,1.41,5.55,2.29-.13,1.44-.28,3-.47,5.07Z"/>
      <path class="cls-1" d="M2173.66,195.78c-1.63-.05-2.21-.06-2.8-.08-1.91-1.51-1.59-2.86,1.59-6.61,2.35,1.16,2.75,3.39,1.21,6.69Z"/>
      <path class="cls-1" d="M1027.31,381.04c-2.59.58-5.18,1.15-9.79,2.18,4.26-4.08,7.56-5.71,11.87-5.75-.7,1.19-1.39,2.38-2.09,3.57Z"/>
      <path class="cls-1" d="M1377.54,339.26c0,1.18,0,2.36,0,3.54-1.05.51-2.1,1.01-3.2,1.54-.72-.65-1.63-1.47-2.54-2.28,1.08-2.23,2.94-3.24,5.74-2.8Z"/>
      <path class="cls-1" d="M937.62,268.53c-2.15.93-3.78,1.63-5.94,2.56-.45-1.45-.76-2.42-1.08-3.46,2.73-.9,5.01-1.48,7.02.91Z"/>
      <path class="cls-1" d="M999.99,389.95c2.46-.86,4.93-1.72,7.39-2.58.28.55.56,1.09.85,1.64-2.3.92-4.6,1.83-6.91,2.75-.44-.6-.89-1.21-1.33-1.81Z"/>
      <path class="cls-1" d="M1099.39,358.38c2.29-1.43,3.87-2.41,6.21-3.87q-1.58,3.74-6.21,3.87Z"/>
      <path class="cls-1" d="M968.58,267.48c-1.39.06-2.3.1-3.66.17,0-1.72,0-3.29,0-6.6,1.7,2.99,2.6,4.57,3.66,6.43Z"/>
      <path class="cls-1" d="M975.07,264.19c-.1,1.16-.2,2.24-.31,3.43-1.26.06-2.17.11-3.57.18-.14-1.1-.27-2.09-.43-3.42,1.71-.08,2.97-.13,4.32-.19Z"/>
      <path class="cls-1" d="M2430.89,180.81c-3.23,1.7-3.84-.83-5.42-2.09,3.23-1.7,3.84.83,5.42,2.09Z"/>
      <path class="cls-1" d="M639.04,184.5c0,2.46,0,4.91,0,7.37-.36,0-.72-.02-1.09-.03,0-2.46,0-4.91,0-7.37.36,0,.72.02,1.09.03Z"/>
      <path class="cls-1" d="M2166.07,188.84c.09-1.08.18-2.1.27-3.21,1.11-.05,1.9-.09,3.13-.15.12,1.03.23,1.96.38,3.2-1.5.06-2.6.11-3.78.16Z"/>
      <path class="cls-1" d="M962.29,277.64c-.99.83-1.98,1.66-3.79,3.18-1.8-3.36-1.28-5.31,1.57-5.87.51,1.03,1.25,1.93,2.22,2.69Z"/>
      <path class="cls-1" d="M942.4,273.48c.96,1.31,1.93,2.61,3.2,4.34-1.41.05-2.54.09-4.02.14-.12-1.45-.21-2.52-.3-3.59.37-.3.75-.59,1.12-.89Z"/>
      <path class="cls-1" d="M2273.41,215.14c-.91-2.38-1.39-3.63-1.6-4.2q1.9-.37,1.6,4.2Z"/>
      <path class="cls-1" d="M2106.18,231.68c-.46.9-1.05,2.05-2.2,4.29-.46-2.43-.6-3.19-.83-4.37,1.42.04,2.65.07,3.02.08Z"/>
      <path class="cls-1" d="M2605.71,161.31v2.07c-1.11-.04-2.07-.07-3.04-.1-.17-.25-.34-.5-.51-.74,1.25-.43,2.49-.86,3.55-1.23Z"/>
      <path class="cls-1" d="M1073.17,358.02c-1.33.07-2.65.15-3.98.22-.06-.39-.11-.78-.17-1.17,1.35-.2,2.71-.41,4.06-.61.03.52.06,1.04.09,1.56Z"/>
      <path class="cls-1" d="M937.13,268.82c1.6.31,4.03-.81,4.21,1.91-1.6-.31-4.03.81-4.21-1.91Z"/>
      <path class="cls-1" d="M2593.65,124.85c-1.12.05-2.23.11-3.35.16-.05-.36-.1-.72-.15-1.07,1.14-.17,2.27-.34,3.41-.51.03.48.06.95.09,1.43Z"/>
      <path class="cls-1" d="M1516.81,233.34v2.92c-.32.03-.65.06-.97.09-.24-.99-.48-1.97-.72-2.96.57-.02,1.13-.04,1.7-.05Z"/>
      <path class="cls-1" d="M931.34,286.83c0-1.21,0-2.42,0-3.63l1.05.02v3.63c-.35,0-.7-.02-1.05-.02Z"/>
      <path class="cls-1" d="M1613.13,335.2c0,1.17,0,2.33,0,3.5l-.98-.02c0-1.17,0-2.33,0-3.5.33,0,.65.01.98.02Z"/>
      <path class="cls-1" d="M273.92,430c.19-2.81,2.8-1.56,4.52-1.81-.19,2.81-2.8,1.56-4.52,1.81Z"/>
      <path class="cls-1" d="M390.89,314.2c-.52.5-1.04,1-1.56,1.49-.23-.2-.47-.4-.7-.6.61-.42,1.22-.84,1.82-1.26.15.12.29.25.44.37Z"/>
      <path class="cls-1" d="M1377.33,339.1c.47-.47.93-.95,1.4-1.42.21.19.42.38.63.57-.55.4-1.09.8-1.64,1.2l-.39-.35Z"/>
      <path class="cls-1" d="M2036.34,317.06c.62.01,1.25.03,1.87.04v.57c-.62-.01-1.25-.03-1.87-.04v-.57Z"/>
      <path class="cls-1" d="M930.59,292.09c.49-.48.98-.97,1.47-1.45l.66.59c-.57.41-1.15.82-1.72,1.23-.14-.12-.27-.24-.41-.36Z"/>
      <path class="cls-1" d="M1367.3,342.79c-.55-.42-1.1-.85-1.64-1.27l.63-.55c.47.49.93.98,1.4,1.48-.13.11-.26.23-.39.34Z"/>
      <path class="cls-1" d="M2593.42,123.41c.41-.44.81-.87,1.22-1.31.18.18.37.36.55.54-.48.37-.95.74-1.43,1.1-.11-.11-.23-.22-.34-.33Z"/>
      <path class="cls-1" d="M930.81,278.35c.7.02,1.41.03,2.11.05v.6c-.7-.02-1.41-.03-2.11-.05v-.6Z"/>
      <path class="cls-1" d="M1367.66,342.42c.55.42,1.1.85,1.64,1.27l-.63.55c-.47-.49-.93-.98-1.4-1.48.13-.11.26-.23.39-.34Z"/>
      <path class="cls-1" d="M1377.72,342.62c.55.42,1.09.84,1.64,1.27l-.63.55c-.47-.49-.93-.98-1.4-1.48l.39-.34Z"/>
      <path class="cls-1" d="M2584.65,128.08c.41-.44.82-.87,1.22-1.31.18.18.37.36.55.54-.48.37-.96.74-1.43,1.11-.11-.11-.23-.22-.34-.34Z"/>
      <path class="cls-1" d="M960.29,274.79c0-.6,0-1.21,0-1.81.58.42,1.16.84,1.74,1.26-.58.19-1.16.37-1.74.56Z"/>
      <path class="cls-1" d="M941.35,274.36c-.58-.42-1.16-.84-1.75-1.26.58-.19,1.16-.37,1.75-.56,0,.6,0,1.21,0,1.81Z"/>
      <path class="cls-1" d="M941.35,272.54c0-.6,0-1.21,0-1.81.58.42,1.16.84,1.75,1.26-.58.19-1.16.37-1.75.56Z"/>
      <path class="cls-1" d="M2630.33,134.16c-.58-.02-1.16-.04-1.75-.06v-.55c.58.02,1.16.04,1.75.06v.55Z"/>
      <path class="cls-1" d="M1065.03,268.34c-.48.48-.97.96-1.45,1.44-.22-.19-.44-.39-.66-.58.57-.41,1.13-.81,1.7-1.22.14.12.27.24.41.36Z"/>
      <path class="cls-1" d="M2562.19,137.57c-.41.44-.82.88-1.23,1.31-.18-.18-.37-.36-.55-.54.48-.37.96-.74,1.44-1.11.11.11.23.22.34.33Z"/>
      <path class="cls-1" d="M974.99,264.26c.7-.59,1.4-1.17,2.1-1.76-.7.59-1.4,1.17-2.1,1.76Z"/>
      <path class="cls-1" d="M948.37,260.01v-1.81c.23,0,.47.01.7.02v1.81c-.23,0-.47-.01-.7-.02Z"/>
      <path class="cls-1" d="M951.87,256.47c-.7-.62-1.4-1.24-2.1-1.86.7.62,1.4,1.24,2.1,1.86Z"/>
      <path class="cls-1" d="M1072.9,356.45c.48-.48.97-.96,1.45-1.44.22.19.44.39.65.58-.57.41-1.13.82-1.7,1.22-.14-.12-.27-.24-.41-.36Z"/>
      <path class="cls-1" d="M1064.59,363.51c.48-.48.97-.96,1.45-1.45.22.19.44.39.66.58-.57.41-1.13.82-1.7,1.22-.14-.12-.27-.24-.41-.36Z"/>
      <path class="cls-1" d="M1524.88,259.77c-.54-.42-1.08-.84-1.62-1.26.21-.18.42-.36.62-.54.46.49.92.98,1.38,1.47-.13.11-.26.22-.39.33Z"/>
      <path class="cls-1" d="M2071.76,263.29c.62.02,1.24.03,1.86.05v.57c-.62-.02-1.24-.03-1.86-.05v-.57Z"/>
      <path class="cls-1" d="M1400.95,385.73v1.77c-.22,0-.45,0-.67-.01,0-.59,0-1.18,0-1.77h.67Z"/>
      <path class="cls-1" d="M375.02,385.34c.75.01,1.49.02,2.23.04v.62c-.74-.01-1.49-.02-2.23-.04v-.62Z"/>
      <path class="cls-1" d="M2148.95,213.73c0,.57,0,1.13,0,1.7-.21,0-.41-.01-.62-.02v-1.7c.21,0,.41.01.62.02Z"/>
      <path class="cls-1" d="M1031.3,173.71c-.57-.44-1.14-.87-1.7-1.31l.66-.55c.48.51.97,1.01,1.45,1.52-.14.11-.27.23-.41.34Z"/>
      <path class="cls-1" d="M1025.01,173.18c.49-.48.97-.96,1.46-1.43.22.2.44.39.66.59-.57.4-1.14.81-1.71,1.21-.14-.12-.27-.24-.41-.36Z"/>
      <path class="cls-1" d="M2166.34,194.02c-.43.45-.86.9-1.28,1.35-.19-.18-.39-.37-.58-.55.5-.38,1-.76,1.5-1.14.12.11.24.23.36.34Z"/>
      <path class="cls-1" d="M2165.95,193.7c.43-.45.86-.9,1.28-1.35.19.18.39.37.58.55-.5.38-1,.76-1.5,1.14-.12-.11-.24-.23-.36-.34Z"/>
      <path class="cls-1" d="M1843.51,184.33c.44-.46.89-.91,1.33-1.37l.6.56c-.52.39-1.04.77-1.56,1.16-.12-.12-.25-.23-.37-.35Z"/>
      <path class="cls-1" d="M2166.34,188.94c-.43.45-.86.9-1.28,1.35-.19-.18-.39-.37-.58-.55.5-.38,1-.76,1.5-1.14.12.11.24.23.36.34Z"/>
      <path class="cls-1" d="M2171.05,180.44c0,.57,0,1.13,0,1.7l-.61-.02v-1.7c.2,0,.41.01.61.02Z"/>
      <path class="cls-1" d="M278.43,428.19c.5-.51,1.01-1.02,1.51-1.54.25.52.5,1.05.74,1.57-.75-.01-1.5-.02-2.26-.03Z"/>
      <path class="cls-1" d="M840.41,14.92v-1.82c.24,0,.47.02.71.03,0,.61,0,1.22,0,1.82l-.71-.03Z"/>
      <path class="cls-1" d="M2780.22,69.34v1.64c-.19,0-.38-.01-.57-.02v-1.64c.19,0,.38.01.57.02Z"/>
      <path class="cls-1" d="M1637.74,213.44v-1.75c.22,0,.43.01.65.02v1.75c-.22,0-.43-.01-.65-.02Z"/>
      <path class="cls-1" d="M1337.07,253.41c-.55-.43-1.1-.85-1.65-1.28l.64-.54c.47.5.94.99,1.41,1.49-.13.11-.26.22-.39.34Z"/>
      <path class="cls-1" d="M967.99,202.52v1.81c-.23,0-.47-.01-.7-.02v-1.81c.23,0,.47.01.7.02Z"/>
      <path class="cls-1" d="M1151.38,336.25c-1.14-.02-2.28-.05-3.42-.07-.05-.29-.11-.57-.16-.86,1.12-.21,2.23-.42,3.35-.63.07.52.15,1.04.22,1.55Z"/>
      <path class="cls-1" d="M1147.4,340.25c-.56-.43-1.12-.86-1.68-1.28.22-.18.43-.37.65-.55.48.5.96,1,1.44,1.49-.13.11-.27.23-.4.34Z"/>
      <path class="cls-1" d="M1365.47,243.28c-1.34-1.22-2.68-2.43-4.03-3.65,1.17.03,2.35.06,4.03.1,0,1.48,0,2.51,0,3.55Z"/>
      <path class="cls-1" d="M1369.31,238.25c-.55-.43-1.1-.85-1.64-1.28l.63-.54c.47.49.93.99,1.4,1.48-.13.11-.26.22-.39.34Z"/>
      <path class="cls-1" d="M941.87,294.32c0-1.21,0-2.42,0-3.63.35,0,.7.02,1.05.02,0,1.21,0,2.42,0,3.63-.35,0-.7-.02-1.05-.02Z"/>
      <path class="cls-1" d="M829.27,332.17c-.5.49-.99.97-1.49,1.46-.22-.2-.45-.39-.67-.59.58-.41,1.16-.83,1.74-1.24.14.12.28.24.42.36Z"/>
      <path class="cls-1" d="M953.79,311.08c-.57-.43-1.15-.87-1.72-1.3.22-.19.44-.37.66-.56.49.5.98,1.01,1.47,1.51l-.41.35Z"/>
      <path class="cls-1" d="M1205.1,325.1c-1.37-.03-2.73-.06-4.1-.08.85-.58,1.7-1.16,2.55-1.74.52.61,1.03,1.21,1.55,1.82Z"/>
      <path class="cls-1" d="M1201.01,325.02c-.68.58-1.37,1.16-2.05,1.75.68-.58,1.37-1.16,2.05-1.75Z"/>
      <path class="cls-1" d="M1385.78,226.25c-.47.47-.93.94-1.4,1.41l-.63-.57c.55-.4,1.09-.79,1.64-1.19l.39.36Z"/>
      <path class="cls-1" d="M1178.45,320.97c.8-2.81,2.97-3.81,6.16-3.45-.8,2.81-2.97,3.81-6.16,3.45Z"/>
      <path class="cls-1" d="M1540.87,291.59c.66.01,1.32.03,1.97.04-.44.48-.88.95-1.32,1.43-.22-.49-.43-.98-.65-1.47Z"/>
      <path class="cls-1" d="M926.59,337.55v-1.82c.58.42,1.17.83,1.75,1.25-.58.19-1.17.38-1.75.56Z"/>
      <path class="cls-1" d="M1060.65,374.41v-1.8c1.39.02,2.77.05,4.16.07,0,.6,0,1.2,0,1.8-1.39-.02-2.77-.05-4.16-.07Z"/>
    </g>
  </g>
</svg>