<?xml version="1.0" encoding="UTF-8"?>
<svg id="Camada_2" data-name="Camada 2" xmlns="http://www.w3.org/2000/svg" viewBox="0 0 1321.56 1982.34">
  <defs>
    <style>
      .cls-1 {
        fill: #fff;
        stroke-width: 0px;
      }
    </style>
  </defs>
  <g id="Camada_1-2" data-name="Camada 1">
    <g>
      <g>
        <path class="cls-1" d="M893.97,991.17v-349.72h-233.15c128.78,0,233.15,156.57,233.15,349.72Z"/>
        <path class="cls-1" d="M660.82,1340.89h233.15v-349.72c0,193.16-104.37,349.72-233.15,349.72Z"/>
        <path class="cls-1" d="M660.82,1340.89c-128.75,0-233.15-156.57-233.15-349.72v349.72h233.15Z"/>
        <path class="cls-1" d="M660.82,641.44h-233.15v349.72c0-193.16,104.4-349.72,233.15-349.72Z"/>
      </g>
      <g>
        <path class="cls-1" d="M1127.1,991.17V291.72h-466.3c257.57,0,466.3,313.13,466.3,699.45Z"/>
        <path class="cls-1" d="M660.8,1690.62h466.3v-699.45c0,386.32-208.73,699.45-466.3,699.45Z"/>
        <path class="cls-1" d="M660.8,1690.62c-257.5,0-466.3-313.13-466.3-699.45v699.45h466.3Z"/>
        <path class="cls-1" d="M660.8,291.72H194.5v699.45c0-386.32,208.8-699.45,466.3-699.45Z"/>
      </g>
      <g>
        <path class="cls-1" d="M660.78,0c364.99,0,660.78,443.73,660.78,991.17V0h-660.78Z"/>
        <path class="cls-1" d="M660.78,1982.34h660.78v-991.17c0,547.44-295.79,991.17-660.78,991.17Z"/>
        <path class="cls-1" d="M0,991.17v991.17h660.78C295.88,1982.34,0,1538.61,0,991.17Z"/>
        <path class="cls-1" d="M660.78,0H0v991.17C0,443.73,295.88,0,660.78,0Z"/>
      </g>
      <g>
        <path class="cls-1" d="M991.21,991.17v-495.58h-330.39c182.49,0,330.39,221.87,330.39,495.58Z"/>
        <path class="cls-1" d="M660.82,1486.75h330.39v-495.58c0,273.72-147.89,495.58-330.39,495.58Z"/>
        <path class="cls-1" d="M660.82,1486.75c-182.45,0-330.39-221.87-330.39-495.58v495.58h330.39Z"/>
        <path class="cls-1" d="M660.82,495.58h-330.39v495.58c0-273.72,147.94-495.58,330.39-495.58Z"/>
      </g>
    </g>
  </g>
</svg>